<svg width="383" height="362" viewBox="0 0 383 362" fill="none" xmlns="http://www.w3.org/2000/svg">
<path d="M132.875 33.597C127.863 24.9158 116.762 21.9414 108.081 26.9535C99.3998 31.9656 96.4255 43.0661 101.438 51.7472L120.596 84.9309C128.393 98.4349 123.766 115.702 110.262 123.499L77.0782 142.658C68.397 147.67 65.4226 158.77 70.4347 167.451C75.4468 176.132 86.5473 179.107 95.2284 174.095L131.905 152.919C160.842 136.213 170.757 99.2108 154.05 70.2737L132.875 33.597Z" fill="#888888"/>
<path d="M242.095 222.772C247.107 231.453 244.132 242.553 235.451 247.565C226.77 252.577 215.67 249.603 210.658 240.922L191.499 207.738C183.702 194.234 166.435 189.607 152.931 197.404L119.747 216.562C111.066 221.575 99.9656 218.6 94.9535 209.919C89.9414 201.238 92.9158 190.137 101.597 185.125L138.274 163.95C167.211 147.243 204.213 157.158 220.919 186.095L242.095 222.772Z" fill="#00A2FF"/>
<path d="M143.905 27.2284C138.893 18.5473 141.868 7.44676 150.549 2.43471C159.23 -2.57735 170.33 0.397027 175.342 9.07817L194.501 42.2619C202.298 55.7659 219.565 60.3927 233.069 52.5961L266.253 33.4375C274.934 28.4255 286.034 31.3998 291.047 40.081C296.059 48.7621 293.084 59.8626 284.403 64.8747L247.726 86.05C218.789 102.757 181.787 92.8423 165.081 63.9051L143.905 27.2284Z" fill="#00A2FF"/>
<path d="M253.125 216.403C258.137 225.084 269.238 228.059 277.919 223.047C286.6 218.034 289.575 206.934 284.562 198.253L265.404 165.069C257.607 151.565 262.234 134.298 275.738 126.501L308.922 107.342C317.603 102.33 320.577 91.2299 315.565 82.5487C310.553 73.8676 299.453 70.8932 290.772 75.9053L254.095 97.0806C225.158 113.787 215.243 150.789 231.95 179.726L253.125 216.403Z" fill="#00A2FF"/>
<rect x="179.626" y="101.437" width="38.2111" height="38.2111" transform="rotate(15 179.626 101.437)" fill="#888888"/>
<path d="M31.3809 347.7C26.5142 347.7 22.1142 346.867 18.1809 345.2C14.3142 343.533 11.2475 341.133 8.98086 338C6.71419 334.867 5.54753 331.167 5.48086 326.9H20.4809C20.6809 329.767 21.6809 332.033 23.4809 333.7C25.3475 335.367 27.8809 336.2 31.0809 336.2C34.3475 336.2 36.9142 335.433 38.7809 333.9C40.6475 332.3 41.5809 330.233 41.5809 327.7C41.5809 325.633 40.9475 323.933 39.6809 322.6C38.4142 321.267 36.8142 320.233 34.8809 319.5C33.0142 318.7 30.4142 317.833 27.0809 316.9C22.5475 315.567 18.8475 314.267 15.9809 313C13.1809 311.667 10.7475 309.7 8.68086 307.1C6.68086 304.433 5.68086 300.9 5.68086 296.5C5.68086 292.367 6.71419 288.767 8.78086 285.7C10.8475 282.633 13.7475 280.3 17.4809 278.7C21.2142 277.033 25.4809 276.2 30.2809 276.2C37.4809 276.2 43.3142 277.967 47.7809 281.5C52.3142 284.967 54.8142 289.833 55.2809 296.1H39.8809C39.7475 293.7 38.7142 291.733 36.7809 290.2C34.9142 288.6 32.4142 287.8 29.2809 287.8C26.5475 287.8 24.3475 288.5 22.6809 289.9C21.0809 291.3 20.2809 293.333 20.2809 296C20.2809 297.867 20.8809 299.433 22.0809 300.7C23.3475 301.9 24.8809 302.9 26.6809 303.7C28.5475 304.433 31.1475 305.3 34.4809 306.3C39.0142 307.633 42.7142 308.967 45.5809 310.3C48.4475 311.633 50.9142 313.633 52.9809 316.3C55.0475 318.967 56.0809 322.467 56.0809 326.8C56.0809 330.533 55.1142 334 53.1809 337.2C51.2475 340.4 48.4142 342.967 44.6809 344.9C40.9475 346.767 36.5142 347.7 31.3809 347.7ZM82.5184 303.1V329.9C82.5184 331.767 82.9517 333.133 83.8184 334C84.7517 334.8 86.285 335.2 88.4184 335.2H94.9184V347H86.1184C74.3184 347 68.4184 341.267 68.4184 329.8V303.1H61.8184V291.6H68.4184V277.9H82.5184V291.6H94.9184V303.1H82.5184ZM99.3879 319.1C99.3879 313.5 100.488 308.533 102.688 304.2C104.955 299.867 107.988 296.533 111.788 294.2C115.655 291.867 119.955 290.7 124.688 290.7C128.821 290.7 132.421 291.533 135.488 293.2C138.621 294.867 141.121 296.967 142.988 299.5V291.6H157.088V347H142.988V338.9C141.188 341.5 138.688 343.667 135.488 345.4C132.355 347.067 128.721 347.9 124.588 347.9C119.921 347.9 115.655 346.7 111.788 344.3C107.988 341.9 104.955 338.533 102.688 334.2C100.488 329.8 99.3879 324.767 99.3879 319.1ZM142.988 319.3C142.988 315.9 142.321 313 140.988 310.6C139.655 308.133 137.855 306.267 135.588 305C133.321 303.667 130.888 303 128.288 303C125.688 303 123.288 303.633 121.088 304.9C118.888 306.167 117.088 308.033 115.688 310.5C114.355 312.9 113.688 315.767 113.688 319.1C113.688 322.433 114.355 325.367 115.688 327.9C117.088 330.367 118.888 332.267 121.088 333.6C123.355 334.933 125.755 335.6 128.288 335.6C130.888 335.6 133.321 334.967 135.588 333.7C137.855 332.367 139.655 330.5 140.988 328.1C142.321 325.633 142.988 322.7 142.988 319.3ZM185.061 303.1V329.9C185.061 331.767 185.495 333.133 186.361 334C187.295 334.8 188.828 335.2 190.961 335.2H197.461V347H188.661C176.861 347 170.961 341.267 170.961 329.8V303.1H164.361V291.6H170.961V277.9H185.061V291.6H197.461V303.1H185.061ZM257.831 291.6V347H243.731V340C241.931 342.4 239.564 344.3 236.631 345.7C233.764 347.033 230.631 347.7 227.231 347.7C222.898 347.7 219.064 346.8 215.731 345C212.398 343.133 209.764 340.433 207.831 336.9C205.964 333.3 205.031 329.033 205.031 324.1V291.6H219.031V322.1C219.031 326.5 220.131 329.9 222.331 332.3C224.531 334.633 227.531 335.8 231.331 335.8C235.198 335.8 238.231 334.633 240.431 332.3C242.631 329.9 243.731 326.5 243.731 322.1V291.6H257.831ZM290.844 347.9C286.311 347.9 282.244 347.1 278.644 345.5C275.044 343.833 272.177 341.6 270.044 338.8C267.977 336 266.844 332.9 266.644 329.5H280.744C281.011 331.633 282.044 333.4 283.844 334.8C285.711 336.2 288.011 336.9 290.744 336.9C293.411 336.9 295.477 336.367 296.944 335.3C298.477 334.233 299.244 332.867 299.244 331.2C299.244 329.4 298.311 328.067 296.444 327.2C294.644 326.267 291.744 325.267 287.744 324.2C283.611 323.2 280.211 322.167 277.544 321.1C274.944 320.033 272.677 318.4 270.744 316.2C268.877 314 267.944 311.033 267.944 307.3C267.944 304.233 268.811 301.433 270.544 298.9C272.344 296.367 274.877 294.367 278.144 292.9C281.477 291.433 285.377 290.7 289.844 290.7C296.444 290.7 301.711 292.367 305.644 295.7C309.577 298.967 311.744 303.4 312.144 309H298.744C298.544 306.8 297.611 305.067 295.944 303.8C294.344 302.467 292.177 301.8 289.444 301.8C286.911 301.8 284.944 302.267 283.544 303.2C282.211 304.133 281.544 305.433 281.544 307.1C281.544 308.967 282.477 310.4 284.344 311.4C286.211 312.333 289.111 313.3 293.044 314.3C297.044 315.3 300.344 316.333 302.944 317.4C305.544 318.467 307.777 320.133 309.644 322.4C311.577 324.6 312.577 327.533 312.644 331.2C312.644 334.4 311.744 337.267 309.944 339.8C308.211 342.333 305.677 344.333 302.344 345.8C299.077 347.2 295.244 347.9 290.844 347.9Z" fill="#1A1A1A"/>
<path d="M374.436 317.5H355.536V336.9H342.336V317.5H323.436V305.3H342.336V285.9H355.536V305.3H374.436V317.5Z" fill="#00A2FF"/>
</svg>
