<svg width="1403" height="400" viewBox="0 0 1403 400" fill="none" xmlns="http://www.w3.org/2000/svg">
<path d="M103.8 53.7551C95.7802 39.8653 78.0194 35.1063 64.1295 43.1256C50.2397 51.1449 45.4807 68.9057 53.5 82.7955L84.1538 135.889C96.6283 157.496 89.2253 185.124 67.619 197.598L14.5251 228.252C0.635241 236.271 -4.12376 254.032 3.89553 267.922C11.9148 281.812 29.6757 286.571 43.5655 278.552L102.248 244.671C148.548 217.94 164.411 158.737 137.68 112.438L103.8 53.7551Z" fill="#888888"/>
<path d="M278.551 356.434C286.571 370.324 281.812 388.085 267.922 396.104C254.032 404.124 236.271 399.365 228.252 385.475L197.598 332.381C185.124 310.775 157.496 303.372 135.889 315.846L82.7955 346.5C68.9056 354.519 51.1448 349.76 43.1255 335.87C35.1062 321.981 39.8652 304.22 53.755 296.2L112.438 262.32C158.737 235.589 217.94 251.452 244.671 297.752L278.551 356.434Z" fill="#00A2FF"/>
<path d="M121.449 43.5655C113.429 29.6757 118.188 11.9148 132.078 3.89553C145.968 -4.12376 163.729 0.635243 171.748 14.5251L202.402 67.619C214.876 89.2254 242.504 96.6282 264.111 84.1538L317.205 53.5C331.094 45.4807 348.855 50.2397 356.874 64.1295C364.894 78.0194 360.135 95.7802 346.245 103.8L287.562 137.68C241.263 164.411 182.06 148.548 155.329 102.248L121.449 43.5655Z" fill="#00A2FF"/>
<path d="M296.2 346.245C304.22 360.135 321.981 364.894 335.87 356.874C349.76 348.855 354.519 331.094 346.5 317.204L315.846 264.111C303.372 242.504 310.775 214.876 332.381 202.402L385.475 171.748C399.365 163.729 404.124 145.968 396.104 132.078C388.085 118.188 370.324 113.429 356.434 121.449L297.752 155.329C251.452 182.06 235.589 241.263 262.32 287.562L296.2 346.245Z" fill="#00A2FF"/>
<rect x="178.602" y="162.298" width="61.1377" height="61.1377" transform="rotate(15 178.602 162.298)" fill="#888888"/>
<path d="M491.208 277.84H469.32L465.288 289H458.376L476.52 239.104H484.08L502.152 289H495.24L491.208 277.84ZM489.336 272.512L480.264 247.168L471.192 272.512H489.336ZM526.404 248.824C531.204 248.824 535.092 250.288 538.068 253.216C541.044 256.096 542.532 260.272 542.532 265.744V289H536.052V266.68C536.052 262.744 535.068 259.744 533.1 257.68C531.132 255.568 528.444 254.512 525.036 254.512C521.58 254.512 518.82 255.592 516.756 257.752C514.74 259.912 513.732 263.056 513.732 267.184V289H507.18V249.544H513.732V255.16C515.028 253.144 516.78 251.584 518.988 250.48C521.244 249.376 523.716 248.824 526.404 248.824ZM1346.83 254.944V278.2C1346.83 280.12 1347.23 281.488 1348.05 282.304C1348.87 283.072 1350.28 283.456 1352.3 283.456H1357.12V289H1351.22C1347.57 289 1344.83 288.16 1343.01 286.48C1341.19 284.8 1340.27 282.04 1340.27 278.2V254.944H1335.16V249.544H1340.27V239.608H1346.83V249.544H1357.12V254.944H1346.83ZM1379.39 289.648C1375.69 289.648 1372.33 288.808 1369.31 287.128C1366.33 285.448 1363.98 283.072 1362.25 280C1360.57 276.88 1359.73 273.28 1359.73 269.2C1359.73 265.168 1360.6 261.616 1362.32 258.544C1364.1 255.424 1366.5 253.048 1369.52 251.416C1372.55 249.736 1375.93 248.896 1379.68 248.896C1383.42 248.896 1386.8 249.736 1389.83 251.416C1392.85 253.048 1395.23 255.4 1396.96 258.472C1398.73 261.544 1399.62 265.12 1399.62 269.2C1399.62 273.28 1398.71 276.88 1396.88 280C1395.11 283.072 1392.68 285.448 1389.61 287.128C1386.54 288.808 1383.13 289.648 1379.39 289.648ZM1379.39 283.888C1381.74 283.888 1383.95 283.336 1386.01 282.232C1388.08 281.128 1389.73 279.472 1390.98 277.264C1392.28 275.056 1392.92 272.368 1392.92 269.2C1392.92 266.032 1392.3 263.344 1391.05 261.136C1389.8 258.928 1388.17 257.296 1386.16 256.24C1384.14 255.136 1381.96 254.584 1379.6 254.584C1377.2 254.584 1375 255.136 1372.98 256.24C1371.01 257.296 1369.43 258.928 1368.23 261.136C1367.03 263.344 1366.43 266.032 1366.43 269.2C1366.43 272.416 1367 275.128 1368.16 277.336C1369.36 279.544 1370.94 281.2 1372.91 282.304C1374.88 283.36 1377.04 283.888 1379.39 283.888ZM487.968 361L476.016 340.48H468.096V361H461.544V310.816H477.744C481.536 310.816 484.728 311.464 487.32 312.76C489.96 314.056 491.928 315.808 493.224 318.016C494.52 320.224 495.168 322.744 495.168 325.576C495.168 329.032 494.16 332.08 492.144 334.72C490.176 337.36 487.2 339.112 483.216 339.976L495.816 361H487.968ZM468.096 335.224H477.744C481.296 335.224 483.96 334.36 485.736 332.632C487.512 330.856 488.4 328.504 488.4 325.576C488.4 322.6 487.512 320.296 485.736 318.664C484.008 317.032 481.344 316.216 477.744 316.216H468.096V335.224ZM519.677 361.648C515.981 361.648 512.621 360.808 509.597 359.128C506.621 357.448 504.269 355.072 502.541 352C500.861 348.88 500.021 345.28 500.021 341.2C500.021 337.168 500.885 333.616 502.613 330.544C504.389 327.424 506.789 325.048 509.813 323.416C512.837 321.736 516.221 320.896 519.965 320.896C523.709 320.896 527.093 321.736 530.117 323.416C533.141 325.048 535.517 327.4 537.245 330.472C539.021 333.544 539.909 337.12 539.909 341.2C539.909 345.28 538.997 348.88 537.173 352C535.397 355.072 532.973 357.448 529.901 359.128C526.829 360.808 523.421 361.648 519.677 361.648ZM519.677 355.888C522.029 355.888 524.237 355.336 526.301 354.232C528.365 353.128 530.021 351.472 531.269 349.264C532.565 347.056 533.213 344.368 533.213 341.2C533.213 338.032 532.589 335.344 531.341 333.136C530.093 330.928 528.461 329.296 526.445 328.24C524.429 327.136 522.245 326.584 519.893 326.584C517.493 326.584 515.285 327.136 513.269 328.24C511.301 329.296 509.717 330.928 508.517 333.136C507.317 335.344 506.717 338.032 506.717 341.2C506.717 344.416 507.293 347.128 508.445 349.336C509.645 351.544 511.229 353.2 513.197 354.304C515.165 355.36 517.325 355.888 519.677 355.888ZM552.195 328.888C553.539 326.536 555.507 324.616 558.099 323.128C560.691 321.64 563.643 320.896 566.955 320.896C570.507 320.896 573.699 321.736 576.531 323.416C579.363 325.096 581.595 327.472 583.227 330.544C584.859 333.568 585.675 337.096 585.675 341.128C585.675 345.112 584.859 348.664 583.227 351.784C581.595 354.904 579.339 357.328 576.459 359.056C573.627 360.784 570.459 361.648 566.955 361.648C563.547 361.648 560.547 360.904 557.955 359.416C555.411 357.928 553.491 356.032 552.195 353.728V361H545.643V307.72H552.195V328.888ZM578.979 341.128C578.979 338.152 578.379 335.56 577.179 333.352C575.979 331.144 574.347 329.464 572.283 328.312C570.267 327.16 568.035 326.584 565.587 326.584C563.187 326.584 560.955 327.184 558.891 328.384C556.875 329.536 555.243 331.24 553.995 333.496C552.795 335.704 552.195 338.272 552.195 341.2C552.195 344.176 552.795 346.792 553.995 349.048C555.243 351.256 556.875 352.96 558.891 354.16C560.955 355.312 563.187 355.888 565.587 355.888C568.035 355.888 570.267 355.312 572.283 354.16C574.347 352.96 575.979 351.256 577.179 349.048C578.379 346.792 578.979 344.152 578.979 341.128ZM597.972 307.72V361H591.42V307.72H597.972ZM623.466 361.648C619.77 361.648 616.41 360.808 613.386 359.128C610.41 357.448 608.058 355.072 606.33 352C604.65 348.88 603.81 345.28 603.81 341.2C603.81 337.168 604.674 333.616 606.402 330.544C608.178 327.424 610.578 325.048 613.602 323.416C616.626 321.736 620.01 320.896 623.754 320.896C627.498 320.896 630.882 321.736 633.906 323.416C636.93 325.048 639.306 327.4 641.034 330.472C642.81 333.544 643.698 337.12 643.698 341.2C643.698 345.28 642.786 348.88 640.962 352C639.186 355.072 636.762 357.448 633.69 359.128C630.618 360.808 627.21 361.648 623.466 361.648ZM623.466 355.888C625.818 355.888 628.026 355.336 630.09 354.232C632.154 353.128 633.81 351.472 635.058 349.264C636.354 347.056 637.002 344.368 637.002 341.2C637.002 338.032 636.378 335.344 635.13 333.136C633.882 330.928 632.25 329.296 630.234 328.24C628.218 327.136 626.034 326.584 623.682 326.584C621.282 326.584 619.074 327.136 617.058 328.24C615.09 329.296 613.506 330.928 612.306 333.136C611.106 335.344 610.506 338.032 610.506 341.2C610.506 344.416 611.082 347.128 612.234 349.336C613.434 351.544 615.018 353.2 616.986 354.304C618.954 355.36 621.114 355.888 623.466 355.888ZM670.025 361L660.665 346.312L651.665 361H644.825L657.569 341.416L644.825 321.544H652.241L661.601 336.16L670.529 321.544H677.369L664.697 341.056L677.441 361H670.025ZM682.014 310.816H689.286L682.374 327.16H677.766L682.014 310.816ZM707.844 361.648C704.82 361.648 702.108 361.144 699.708 360.136C697.308 359.08 695.412 357.64 694.02 355.816C692.628 353.944 691.86 351.808 691.716 349.408H698.484C698.676 351.376 699.588 352.984 701.22 354.232C702.9 355.48 705.084 356.104 707.772 356.104C710.268 356.104 712.236 355.552 713.676 354.448C715.116 353.344 715.836 351.952 715.836 350.272C715.836 348.544 715.068 347.272 713.532 346.456C711.996 345.592 709.62 344.752 706.404 343.936C703.476 343.168 701.076 342.4 699.204 341.632C697.38 340.816 695.796 339.64 694.452 338.104C693.156 336.52 692.508 334.456 692.508 331.912C692.508 329.896 693.108 328.048 694.308 326.368C695.508 324.688 697.212 323.368 699.42 322.408C701.628 321.4 704.148 320.896 706.98 320.896C711.348 320.896 714.876 322 717.564 324.208C720.252 326.416 721.692 329.44 721.884 333.28H715.332C715.188 331.216 714.348 329.56 712.812 328.312C711.324 327.064 709.308 326.44 706.764 326.44C704.412 326.44 702.54 326.944 701.148 327.952C699.756 328.96 699.06 330.28 699.06 331.912C699.06 333.208 699.468 334.288 700.284 335.152C701.148 335.968 702.204 336.64 703.452 337.168C704.748 337.648 706.524 338.2 708.78 338.824C711.612 339.592 713.916 340.36 715.692 341.128C717.468 341.848 718.98 342.952 720.228 344.44C721.524 345.928 722.196 347.872 722.244 350.272C722.244 352.432 721.644 354.376 720.444 356.104C719.244 357.832 717.54 359.2 715.332 360.208C713.172 361.168 710.676 361.648 707.844 361.648ZM760.841 361.504C757.529 361.504 754.553 360.928 751.913 359.776C749.321 358.576 747.281 356.944 745.793 354.88C744.305 352.768 743.537 350.344 743.489 347.608H750.473C750.713 349.96 751.673 351.952 753.353 353.584C755.081 355.168 757.577 355.96 760.841 355.96C763.961 355.96 766.409 355.192 768.185 353.656C770.009 352.072 770.921 350.056 770.921 347.608C770.921 345.688 770.393 344.128 769.337 342.928C768.281 341.728 766.961 340.816 765.377 340.192C763.793 339.568 761.657 338.896 758.969 338.176C755.657 337.312 752.993 336.448 750.977 335.584C749.009 334.72 747.305 333.376 745.865 331.552C744.473 329.68 743.777 327.184 743.777 324.064C743.777 321.328 744.473 318.904 745.865 316.792C747.257 314.68 749.201 313.048 751.697 311.896C754.241 310.744 757.145 310.168 760.409 310.168C765.113 310.168 768.953 311.344 771.929 313.696C774.953 316.048 776.657 319.168 777.041 323.056H769.841C769.601 321.136 768.593 319.456 766.817 318.016C765.041 316.528 762.689 315.784 759.761 315.784C757.025 315.784 754.793 316.504 753.065 317.944C751.337 319.336 750.473 321.304 750.473 323.848C750.473 325.672 750.977 327.16 751.985 328.312C753.041 329.464 754.313 330.352 755.801 330.976C757.337 331.552 759.473 332.224 762.209 332.992C765.521 333.904 768.185 334.816 770.201 335.728C772.217 336.592 773.945 337.96 775.385 339.832C776.825 341.656 777.545 344.152 777.545 347.32C777.545 349.768 776.897 352.072 775.601 354.232C774.305 356.392 772.385 358.144 769.841 359.488C767.297 360.832 764.297 361.504 760.841 361.504ZM792.299 326.944V350.2C792.299 352.12 792.707 353.488 793.523 354.304C794.339 355.072 795.755 355.456 797.771 355.456H802.595V361H796.691C793.043 361 790.307 360.16 788.483 358.48C786.659 356.8 785.747 354.04 785.747 350.2V326.944H780.635V321.544H785.747V311.608H792.299V321.544H802.595V326.944H792.299ZM805.205 341.128C805.205 337.096 806.021 333.568 807.653 330.544C809.285 327.472 811.517 325.096 814.349 323.416C817.229 321.736 820.421 320.896 823.925 320.896C827.381 320.896 830.381 321.64 832.925 323.128C835.469 324.616 837.365 326.488 838.613 328.744V321.544H845.237V361H838.613V353.656C837.317 355.96 835.373 357.88 832.781 359.416C830.237 360.904 827.261 361.648 823.853 361.648C820.349 361.648 817.181 360.784 814.349 359.056C811.517 357.328 809.285 354.904 807.653 351.784C806.021 348.664 805.205 345.112 805.205 341.128ZM838.613 341.2C838.613 338.224 838.013 335.632 836.813 333.424C835.613 331.216 833.981 329.536 831.917 328.384C829.901 327.184 827.669 326.584 825.221 326.584C822.773 326.584 820.541 327.16 818.525 328.312C816.509 329.464 814.901 331.144 813.701 333.352C812.501 335.56 811.901 338.152 811.901 341.128C811.901 344.152 812.501 346.792 813.701 349.048C814.901 351.256 816.509 352.96 818.525 354.16C820.541 355.312 822.773 355.888 825.221 355.888C827.669 355.888 829.901 355.312 831.917 354.16C833.981 352.96 835.613 351.256 836.813 349.048C838.013 346.792 838.613 344.176 838.613 341.2ZM861.421 326.944V350.2C861.421 352.12 861.829 353.488 862.645 354.304C863.461 355.072 864.877 355.456 866.893 355.456H871.717V361H865.813C862.165 361 859.429 360.16 857.605 358.48C855.781 356.8 854.869 354.04 854.869 350.2V326.944H849.757V321.544H854.869V311.608H861.421V321.544H871.717V326.944H861.421ZM911.768 321.544V361H905.216V355.168C903.968 357.184 902.216 358.768 899.96 359.92C897.752 361.024 895.304 361.576 892.616 361.576C889.544 361.576 886.784 360.952 884.336 359.704C881.888 358.408 879.944 356.488 878.504 353.944C877.112 351.4 876.416 348.304 876.416 344.656V321.544H882.896V343.792C882.896 347.68 883.88 350.68 885.848 352.792C887.816 354.856 890.504 355.888 893.912 355.888C897.416 355.888 900.176 354.808 902.192 352.648C904.208 350.488 905.216 347.344 905.216 343.216V321.544H911.768ZM933.919 361.648C930.895 361.648 928.183 361.144 925.783 360.136C923.383 359.08 921.487 357.64 920.095 355.816C918.703 353.944 917.935 351.808 917.791 349.408H924.559C924.751 351.376 925.663 352.984 927.295 354.232C928.975 355.48 931.159 356.104 933.847 356.104C936.343 356.104 938.311 355.552 939.751 354.448C941.191 353.344 941.911 351.952 941.911 350.272C941.911 348.544 941.143 347.272 939.607 346.456C938.071 345.592 935.695 344.752 932.479 343.936C929.551 343.168 927.151 342.4 925.279 341.632C923.455 340.816 921.871 339.64 920.527 338.104C919.231 336.52 918.583 334.456 918.583 331.912C918.583 329.896 919.183 328.048 920.383 326.368C921.583 324.688 923.287 323.368 925.495 322.408C927.703 321.4 930.223 320.896 933.055 320.896C937.423 320.896 940.951 322 943.639 324.208C946.327 326.416 947.767 329.44 947.959 333.28H941.407C941.263 331.216 940.423 329.56 938.887 328.312C937.399 327.064 935.383 326.44 932.839 326.44C930.487 326.44 928.615 326.944 927.223 327.952C925.831 328.96 925.135 330.28 925.135 331.912C925.135 333.208 925.543 334.288 926.359 335.152C927.223 335.968 928.279 336.64 929.527 337.168C930.823 337.648 932.599 338.2 934.855 338.824C937.687 339.592 939.991 340.36 941.767 341.128C943.543 341.848 945.055 342.952 946.303 344.44C947.599 345.928 948.271 347.872 948.319 350.272C948.319 352.432 947.719 354.376 946.519 356.104C945.319 357.832 943.615 359.2 941.407 360.208C939.247 361.168 936.751 361.648 933.919 361.648ZM986.915 361.504C983.603 361.504 980.627 360.928 977.987 359.776C975.395 358.576 973.355 356.944 971.867 354.88C970.379 352.768 969.611 350.344 969.563 347.608H976.547C976.787 349.96 977.747 351.952 979.427 353.584C981.155 355.168 983.651 355.96 986.915 355.96C990.035 355.96 992.483 355.192 994.259 353.656C996.083 352.072 996.995 350.056 996.995 347.608C996.995 345.688 996.467 344.128 995.411 342.928C994.355 341.728 993.035 340.816 991.451 340.192C989.867 339.568 987.731 338.896 985.043 338.176C981.731 337.312 979.067 336.448 977.051 335.584C975.083 334.72 973.379 333.376 971.939 331.552C970.547 329.68 969.851 327.184 969.851 324.064C969.851 321.328 970.547 318.904 971.939 316.792C973.331 314.68 975.275 313.048 977.771 311.896C980.315 310.744 983.219 310.168 986.483 310.168C991.187 310.168 995.027 311.344 998.003 313.696C1001.03 316.048 1002.73 319.168 1003.12 323.056H995.915C995.675 321.136 994.667 319.456 992.891 318.016C991.115 316.528 988.763 315.784 985.835 315.784C983.099 315.784 980.867 316.504 979.139 317.944C977.411 319.336 976.547 321.304 976.547 323.848C976.547 325.672 977.051 327.16 978.059 328.312C979.115 329.464 980.387 330.352 981.875 330.976C983.411 331.552 985.547 332.224 988.283 332.992C991.595 333.904 994.259 334.816 996.275 335.728C998.291 336.592 1000.02 337.96 1001.46 339.832C1002.9 341.656 1003.62 344.152 1003.62 347.32C1003.62 349.768 1002.97 352.072 1001.68 354.232C1000.38 356.392 998.459 358.144 995.915 359.488C993.371 360.832 990.371 361.504 986.915 361.504ZM1013.76 315.136C1012.52 315.136 1011.46 314.704 1010.6 313.84C1009.73 312.976 1009.3 311.92 1009.3 310.672C1009.3 309.424 1009.73 308.368 1010.6 307.504C1011.46 306.64 1012.52 306.208 1013.76 306.208C1014.96 306.208 1015.97 306.64 1016.79 307.504C1017.65 308.368 1018.08 309.424 1018.08 310.672C1018.08 311.92 1017.65 312.976 1016.79 313.84C1015.97 314.704 1014.96 315.136 1013.76 315.136ZM1016.93 321.544V361H1010.38V321.544H1016.93ZM1033.21 326.944V350.2C1033.21 352.12 1033.62 353.488 1034.44 354.304C1035.25 355.072 1036.67 355.456 1038.68 355.456H1043.51V361H1037.6C1033.96 361 1031.22 360.16 1029.4 358.48C1027.57 356.8 1026.66 354.04 1026.66 350.2V326.944H1021.55V321.544H1026.66V311.608H1033.21V321.544H1043.51V326.944H1033.21ZM1084.57 339.76C1084.57 341.008 1084.49 342.328 1084.35 343.72H1052.81C1053.05 347.608 1054.37 350.656 1056.77 352.864C1059.22 355.024 1062.17 356.104 1065.63 356.104C1068.46 356.104 1070.81 355.456 1072.69 354.16C1074.61 352.816 1075.95 351.04 1076.72 348.832H1083.77C1082.72 352.624 1080.61 355.72 1077.44 358.12C1074.27 360.472 1070.33 361.648 1065.63 361.648C1061.89 361.648 1058.53 360.808 1055.55 359.128C1052.62 357.448 1050.32 355.072 1048.64 352C1046.96 348.88 1046.12 345.28 1046.12 341.2C1046.12 337.12 1046.93 333.544 1048.57 330.472C1050.2 327.4 1052.48 325.048 1055.41 323.416C1058.38 321.736 1061.79 320.896 1065.63 320.896C1069.37 320.896 1072.69 321.712 1075.57 323.344C1078.45 324.976 1080.65 327.232 1082.19 330.112C1083.77 332.944 1084.57 336.16 1084.57 339.76ZM1077.8 338.392C1077.8 335.896 1077.25 333.76 1076.14 331.984C1075.04 330.16 1073.53 328.792 1071.61 327.88C1069.73 326.92 1067.65 326.44 1065.34 326.44C1062.03 326.44 1059.2 327.496 1056.85 329.608C1054.54 331.72 1053.22 334.648 1052.89 338.392H1077.8Z" fill="currentColor"/>
<path d="M564.222 269.128C564.222 265.096 565.038 261.568 566.67 258.544C568.302 255.472 570.534 253.096 573.366 251.416C576.246 249.736 579.438 248.896 582.942 248.896C586.398 248.896 589.398 249.64 591.942 251.128C594.486 252.616 596.382 254.488 597.63 256.744V249.544H604.254V289H597.63V281.656C596.334 283.96 594.39 285.88 591.798 287.416C589.254 288.904 586.278 289.648 582.87 289.648C579.366 289.648 576.198 288.784 573.366 287.056C570.534 285.328 568.302 282.904 566.67 279.784C565.038 276.664 564.222 273.112 564.222 269.128ZM597.63 269.2C597.63 266.224 597.03 263.632 595.83 261.424C594.63 259.216 592.998 257.536 590.934 256.384C588.918 255.184 586.686 254.584 584.238 254.584C581.79 254.584 579.558 255.16 577.542 256.312C575.526 257.464 573.918 259.144 572.718 261.352C571.518 263.56 570.918 266.152 570.918 269.128C570.918 272.152 571.518 274.792 572.718 277.048C573.918 279.256 575.526 280.96 577.542 282.16C579.558 283.312 581.79 283.888 584.238 283.888C586.686 283.888 588.918 283.312 590.934 282.16C592.998 280.96 594.63 279.256 595.83 277.048C597.03 274.792 597.63 272.176 597.63 269.2ZM647.438 249.544V289H640.886V283.168C639.638 285.184 637.886 286.768 635.63 287.92C633.422 289.024 630.974 289.576 628.286 289.576C625.214 289.576 622.454 288.952 620.006 287.704C617.558 286.408 615.614 284.488 614.174 281.944C612.782 279.4 612.086 276.304 612.086 272.656V249.544H618.566V271.792C618.566 275.68 619.55 278.68 621.518 280.792C623.486 282.856 626.174 283.888 629.582 283.888C633.086 283.888 635.846 282.808 637.862 280.648C639.878 278.488 640.886 275.344 640.886 271.216V249.544H647.438ZM663.613 254.944V278.2C663.613 280.12 664.021 281.488 664.837 282.304C665.653 283.072 667.069 283.456 669.085 283.456H673.909V289H668.005C664.357 289 661.621 288.16 659.797 286.48C657.973 284.8 657.061 282.04 657.061 278.2V254.944H651.949V249.544H657.061V239.608H663.613V249.544H673.909V254.944H663.613ZM696.175 289.648C692.479 289.648 689.119 288.808 686.095 287.128C683.119 285.448 680.767 283.072 679.039 280C677.359 276.88 676.519 273.28 676.519 269.2C676.519 265.168 677.383 261.616 679.111 258.544C680.887 255.424 683.287 253.048 686.311 251.416C689.335 249.736 692.719 248.896 696.463 248.896C700.207 248.896 703.591 249.736 706.615 251.416C709.639 253.048 712.015 255.4 713.743 258.472C715.519 261.544 716.407 265.12 716.407 269.2C716.407 273.28 715.495 276.88 713.671 280C711.895 283.072 709.471 285.448 706.399 287.128C703.327 288.808 699.919 289.648 696.175 289.648ZM696.175 283.888C698.527 283.888 700.735 283.336 702.799 282.232C704.863 281.128 706.519 279.472 707.767 277.264C709.063 275.056 709.711 272.368 709.711 269.2C709.711 266.032 709.087 263.344 707.839 261.136C706.591 258.928 704.959 257.296 702.943 256.24C700.927 255.136 698.743 254.584 696.391 254.584C693.991 254.584 691.783 255.136 689.767 256.24C687.799 257.296 686.215 258.928 685.015 261.136C683.815 263.344 683.215 266.032 683.215 269.2C683.215 272.416 683.791 275.128 684.943 277.336C686.143 279.544 687.727 281.2 689.695 282.304C691.663 283.36 693.823 283.888 696.175 283.888ZM769.59 248.824C772.662 248.824 775.398 249.472 777.798 250.768C780.198 252.016 782.094 253.912 783.486 256.456C784.878 259 785.574 262.096 785.574 265.744V289H779.094V266.68C779.094 262.744 778.11 259.744 776.142 257.68C774.222 255.568 771.606 254.512 768.294 254.512C764.886 254.512 762.174 255.616 760.158 257.824C758.142 259.984 757.134 263.128 757.134 267.256V289H750.654V266.68C750.654 262.744 749.67 259.744 747.702 257.68C745.782 255.568 743.166 254.512 739.854 254.512C736.446 254.512 733.734 255.616 731.718 257.824C729.702 259.984 728.694 263.128 728.694 267.256V289H722.142V249.544H728.694V255.232C729.99 253.168 731.718 251.584 733.878 250.48C736.086 249.376 738.51 248.824 741.15 248.824C744.462 248.824 747.39 249.568 749.934 251.056C752.478 252.544 754.374 254.728 755.622 257.608C756.726 254.824 758.55 252.664 761.094 251.128C763.638 249.592 766.47 248.824 769.59 248.824ZM790.993 269.128C790.993 265.096 791.809 261.568 793.441 258.544C795.073 255.472 797.305 253.096 800.137 251.416C803.017 249.736 806.209 248.896 809.713 248.896C813.169 248.896 816.169 249.64 818.713 251.128C821.257 252.616 823.153 254.488 824.401 256.744V249.544H831.025V289H824.401V281.656C823.105 283.96 821.161 285.88 818.569 287.416C816.025 288.904 813.049 289.648 809.641 289.648C806.137 289.648 802.969 288.784 800.137 287.056C797.305 285.328 795.073 282.904 793.441 279.784C791.809 276.664 790.993 273.112 790.993 269.128ZM824.401 269.2C824.401 266.224 823.801 263.632 822.601 261.424C821.401 259.216 819.769 257.536 817.705 256.384C815.689 255.184 813.457 254.584 811.009 254.584C808.561 254.584 806.329 255.16 804.313 256.312C802.297 257.464 800.689 259.144 799.489 261.352C798.289 263.56 797.689 266.152 797.689 269.128C797.689 272.152 798.289 274.792 799.489 277.048C800.689 279.256 802.297 280.96 804.313 282.16C806.329 283.312 808.561 283.888 811.009 283.888C813.457 283.888 815.689 283.312 817.705 282.16C819.769 280.96 821.401 279.256 822.601 277.048C823.801 274.792 824.401 272.176 824.401 269.2ZM847.21 254.944V278.2C847.21 280.12 847.618 281.488 848.434 282.304C849.25 283.072 850.666 283.456 852.682 283.456H857.506V289H851.602C847.954 289 845.218 288.16 843.394 286.48C841.57 284.8 840.658 282.04 840.658 278.2V254.944H835.546V249.544H840.658V239.608H847.21V249.544H857.506V254.944H847.21ZM898.564 267.76C898.564 269.008 898.492 270.328 898.348 271.72H866.812C867.052 275.608 868.372 278.656 870.772 280.864C873.22 283.024 876.172 284.104 879.628 284.104C882.46 284.104 884.812 283.456 886.684 282.16C888.604 280.816 889.948 279.04 890.716 276.832H897.772C896.716 280.624 894.604 283.72 891.436 286.12C888.268 288.472 884.332 289.648 879.628 289.648C875.884 289.648 872.524 288.808 869.548 287.128C866.62 285.448 864.316 283.072 862.636 280C860.956 276.88 860.116 273.28 860.116 269.2C860.116 265.12 860.932 261.544 862.564 258.472C864.196 255.4 866.476 253.048 869.404 251.416C872.38 249.736 875.788 248.896 879.628 248.896C883.372 248.896 886.684 249.712 889.564 251.344C892.444 252.976 894.652 255.232 896.188 258.112C897.772 260.944 898.564 264.16 898.564 267.76ZM891.796 266.392C891.796 263.896 891.244 261.76 890.14 259.984C889.036 258.16 887.524 256.792 885.604 255.88C883.732 254.92 881.644 254.44 879.34 254.44C876.028 254.44 873.196 255.496 870.844 257.608C868.54 259.72 867.22 262.648 866.884 266.392H891.796ZM901.885 269.128C901.885 265.096 902.701 261.568 904.333 258.544C905.965 255.472 908.197 253.096 911.029 251.416C913.909 249.736 917.125 248.896 920.677 248.896C923.749 248.896 926.605 249.616 929.245 251.056C931.885 252.448 933.901 254.296 935.293 256.6V235.72H941.917V289H935.293V281.584C933.997 283.936 932.077 285.88 929.533 287.416C926.989 288.904 924.013 289.648 920.605 289.648C917.101 289.648 913.909 288.784 911.029 287.056C908.197 285.328 905.965 282.904 904.333 279.784C902.701 276.664 901.885 273.112 901.885 269.128ZM935.293 269.2C935.293 266.224 934.693 263.632 933.493 261.424C932.293 259.216 930.661 257.536 928.597 256.384C926.581 255.184 924.349 254.584 921.901 254.584C919.453 254.584 917.221 255.16 915.205 256.312C913.189 257.464 911.581 259.144 910.381 261.352C909.181 263.56 908.581 266.152 908.581 269.128C908.581 272.152 909.181 274.792 910.381 277.048C911.581 279.256 913.189 280.96 915.205 282.16C917.221 283.312 919.453 283.888 921.901 283.888C924.349 283.888 926.581 283.312 928.597 282.16C930.661 280.96 932.293 279.256 933.493 277.048C934.693 274.792 935.293 272.176 935.293 269.2ZM963.976 269.128C963.976 265.096 964.792 261.568 966.424 258.544C968.056 255.472 970.288 253.096 973.12 251.416C976 249.736 979.192 248.896 982.696 248.896C986.152 248.896 989.152 249.64 991.696 251.128C994.24 252.616 996.136 254.488 997.384 256.744V249.544H1004.01V289H997.384V281.656C996.088 283.96 994.144 285.88 991.552 287.416C989.008 288.904 986.032 289.648 982.624 289.648C979.12 289.648 975.952 288.784 973.12 287.056C970.288 285.328 968.056 282.904 966.424 279.784C964.792 276.664 963.976 273.112 963.976 269.128ZM997.384 269.2C997.384 266.224 996.784 263.632 995.584 261.424C994.384 259.216 992.752 257.536 990.688 256.384C988.672 255.184 986.44 254.584 983.992 254.584C981.544 254.584 979.312 255.16 977.296 256.312C975.28 257.464 973.672 259.144 972.472 261.352C971.272 263.56 970.672 266.152 970.672 269.128C970.672 272.152 971.272 274.792 972.472 277.048C973.672 279.256 975.28 280.96 977.296 282.16C979.312 283.312 981.544 283.888 983.992 283.888C986.44 283.888 988.672 283.312 990.688 282.16C992.752 280.96 994.384 279.256 995.584 277.048C996.784 274.792 997.384 272.176 997.384 269.2ZM1018.75 235.72V289H1012.2V235.72H1018.75ZM1035.03 254.944V278.2C1035.03 280.12 1035.44 281.488 1036.26 282.304C1037.07 283.072 1038.49 283.456 1040.5 283.456H1045.33V289H1039.42C1035.78 289 1033.04 288.16 1031.22 286.48C1029.39 284.8 1028.48 282.04 1028.48 278.2V254.944H1023.37V249.544H1028.48V239.608H1035.03V249.544H1045.33V254.944H1035.03ZM1086.39 267.76C1086.39 269.008 1086.31 270.328 1086.17 271.72H1054.63C1054.87 275.608 1056.19 278.656 1058.59 280.864C1061.04 283.024 1063.99 284.104 1067.45 284.104C1070.28 284.104 1072.63 283.456 1074.51 282.16C1076.43 280.816 1077.77 279.04 1078.54 276.832H1085.59C1084.54 280.624 1082.43 283.72 1079.26 286.12C1076.09 288.472 1072.15 289.648 1067.45 289.648C1063.71 289.648 1060.35 288.808 1057.37 287.128C1054.44 285.448 1052.14 283.072 1050.46 280C1048.78 276.88 1047.94 273.28 1047.94 269.2C1047.94 265.12 1048.75 261.544 1050.39 258.472C1052.02 255.4 1054.3 253.048 1057.23 251.416C1060.2 249.736 1063.61 248.896 1067.45 248.896C1071.19 248.896 1074.51 249.712 1077.39 251.344C1080.27 252.976 1082.47 255.232 1084.01 258.112C1085.59 260.944 1086.39 264.16 1086.39 267.76ZM1079.62 266.392C1079.62 263.896 1079.07 261.76 1077.96 259.984C1076.86 258.16 1075.35 256.792 1073.43 255.88C1071.55 254.92 1069.47 254.44 1067.16 254.44C1063.85 254.44 1061.02 255.496 1058.67 257.608C1056.36 259.72 1055.04 262.648 1054.71 266.392H1079.62ZM1098.71 255.952C1099.86 253.696 1101.49 251.944 1103.6 250.696C1105.76 249.448 1108.38 248.824 1111.45 248.824V255.592H1109.72C1102.38 255.592 1098.71 259.576 1098.71 267.544V289H1092.15V249.544H1098.71V255.952ZM1135.36 248.824C1140.16 248.824 1144.05 250.288 1147.02 253.216C1150 256.096 1151.49 260.272 1151.49 265.744V289H1145.01V266.68C1145.01 262.744 1144.02 259.744 1142.05 257.68C1140.09 255.568 1137.4 254.512 1133.99 254.512C1130.53 254.512 1127.77 255.592 1125.71 257.752C1123.69 259.912 1122.69 263.056 1122.69 267.184V289H1116.13V249.544H1122.69V255.16C1123.98 253.144 1125.73 251.584 1127.94 250.48C1130.2 249.376 1132.67 248.824 1135.36 248.824ZM1156.86 269.128C1156.86 265.096 1157.68 261.568 1159.31 258.544C1160.94 255.472 1163.17 253.096 1166 251.416C1168.88 249.736 1172.08 248.896 1175.58 248.896C1179.04 248.896 1182.04 249.64 1184.58 251.128C1187.12 252.616 1189.02 254.488 1190.27 256.744V249.544H1196.89V289H1190.27V281.656C1188.97 283.96 1187.03 285.88 1184.44 287.416C1181.89 288.904 1178.92 289.648 1175.51 289.648C1172 289.648 1168.84 288.784 1166 287.056C1163.17 285.328 1160.94 282.904 1159.31 279.784C1157.68 276.664 1156.86 273.112 1156.86 269.128ZM1190.27 269.2C1190.27 266.224 1189.67 263.632 1188.47 261.424C1187.27 259.216 1185.64 257.536 1183.57 256.384C1181.56 255.184 1179.32 254.584 1176.88 254.584C1174.43 254.584 1172.2 255.16 1170.18 256.312C1168.16 257.464 1166.56 259.144 1165.36 261.352C1164.16 263.56 1163.56 266.152 1163.56 269.128C1163.56 272.152 1164.16 274.792 1165.36 277.048C1166.56 279.256 1168.16 280.96 1170.18 282.16C1172.2 283.312 1174.43 283.888 1176.88 283.888C1179.32 283.888 1181.56 283.312 1183.57 282.16C1185.64 280.96 1187.27 279.256 1188.47 277.048C1189.67 274.792 1190.27 272.176 1190.27 269.2ZM1213.08 254.944V278.2C1213.08 280.12 1213.48 281.488 1214.3 282.304C1215.12 283.072 1216.53 283.456 1218.55 283.456H1223.37V289H1217.47C1213.82 289 1211.08 288.16 1209.26 286.48C1207.44 284.8 1206.52 282.04 1206.52 278.2V254.944H1201.41V249.544H1206.52V239.608H1213.08V249.544H1223.37V254.944H1213.08ZM1231.82 243.136C1230.57 243.136 1229.51 242.704 1228.65 241.84C1227.78 240.976 1227.35 239.92 1227.35 238.672C1227.35 237.424 1227.78 236.368 1228.65 235.504C1229.51 234.64 1230.57 234.208 1231.82 234.208C1233.02 234.208 1234.02 234.64 1234.84 235.504C1235.7 236.368 1236.14 237.424 1236.14 238.672C1236.14 239.92 1235.7 240.976 1234.84 241.84C1234.02 242.704 1233.02 243.136 1231.82 243.136ZM1234.98 249.544V289H1228.43V249.544H1234.98ZM1257.96 282.952L1270.2 249.544H1277.18L1261.7 289H1254.07L1238.59 249.544H1245.65L1257.96 282.952ZM1316.75 267.76C1316.75 269.008 1316.68 270.328 1316.53 271.72H1285C1285.24 275.608 1286.56 278.656 1288.96 280.864C1291.41 283.024 1294.36 284.104 1297.81 284.104C1300.65 284.104 1303 283.456 1304.87 282.16C1306.79 280.816 1308.13 279.04 1308.9 276.832H1315.96C1314.9 280.624 1312.79 283.72 1309.62 286.12C1306.45 288.472 1302.52 289.648 1297.81 289.648C1294.07 289.648 1290.71 288.808 1287.73 287.128C1284.81 285.448 1282.5 283.072 1280.82 280C1279.14 276.88 1278.3 273.28 1278.3 269.2C1278.3 265.12 1279.12 261.544 1280.75 258.472C1282.38 255.4 1284.66 253.048 1287.59 251.416C1290.57 249.736 1293.97 248.896 1297.81 248.896C1301.56 248.896 1304.87 249.712 1307.75 251.344C1310.63 252.976 1312.84 255.232 1314.37 258.112C1315.96 260.944 1316.75 264.16 1316.75 267.76ZM1309.98 266.392C1309.98 263.896 1309.43 261.76 1308.33 259.984C1307.22 258.16 1305.71 256.792 1303.79 255.88C1301.92 254.92 1299.83 254.44 1297.53 254.44C1294.21 254.44 1291.38 255.496 1289.03 257.608C1286.73 259.72 1285.41 262.648 1285.07 266.392H1309.98Z" fill="#00A2FF"/>
<path d="M518 199.4C508.267 199.4 499.467 197.733 491.6 194.4C483.867 191.067 477.733 186.267 473.2 180C468.667 173.733 466.333 166.333 466.2 157.8H496.2C496.6 163.533 498.6 168.067 502.2 171.4C505.933 174.733 511 176.4 517.4 176.4C523.933 176.4 529.067 174.867 532.8 171.8C536.533 168.6 538.4 164.467 538.4 159.4C538.4 155.267 537.133 151.867 534.6 149.2C532.067 146.533 528.867 144.467 525 143C521.267 141.4 516.067 139.667 509.4 137.8C500.333 135.133 492.933 132.533 487.2 130C481.6 127.333 476.733 123.4 472.6 118.2C468.6 112.867 466.6 105.8 466.6 97C466.6 88.7333 468.667 81.5333 472.8 75.4C476.933 69.2667 482.733 64.6 490.2 61.4C497.667 58.0667 506.2 56.4 515.8 56.4C530.2 56.4 541.867 59.9333 550.8 67C559.867 73.9333 564.867 83.6667 565.8 96.2H535C534.733 91.4 532.667 87.4667 528.8 84.4C525.067 81.2 520.067 79.6 513.8 79.6C508.333 79.6 503.933 81 500.6 83.8C497.4 86.6 495.8 90.6667 495.8 96C495.8 99.7333 497 102.867 499.4 105.4C501.933 107.8 505 109.8 508.6 111.4C512.333 112.867 517.533 114.6 524.2 116.6C533.267 119.267 540.667 121.933 546.4 124.6C552.133 127.267 557.067 131.267 561.2 136.6C565.333 141.933 567.4 148.933 567.4 157.6C567.4 165.067 565.467 172 561.6 178.4C557.733 184.8 552.067 189.933 544.6 193.8C537.133 197.533 528.267 199.4 518 199.4ZM616.275 110.2V163.8C616.275 167.533 617.142 170.267 618.875 172C620.742 173.6 623.808 174.4 628.075 174.4H641.075V198H623.475C599.875 198 588.075 186.533 588.075 163.6V110.2H574.875V87.2H588.075V59.8H616.275V87.2H641.075V110.2H616.275ZM646.014 142.2C646.014 131 648.214 121.067 652.614 112.4C657.147 103.733 663.214 97.0667 670.814 92.4C678.547 87.7333 687.147 85.4 696.614 85.4C704.881 85.4 712.081 87.0667 718.214 90.4C724.481 93.7333 729.481 97.9333 733.214 103V87.2H761.414V198H733.214V181.8C729.614 187 724.614 191.333 718.214 194.8C711.947 198.133 704.681 199.8 696.414 199.8C687.081 199.8 678.547 197.4 670.814 192.6C663.214 187.8 657.147 181.067 652.614 172.4C648.214 163.6 646.014 153.533 646.014 142.2ZM733.214 142.6C733.214 135.8 731.881 130 729.214 125.2C726.547 120.267 722.947 116.533 718.414 114C713.881 111.333 709.014 110 703.814 110C698.614 110 693.814 111.267 689.414 113.8C685.014 116.333 681.414 120.067 678.614 125C675.947 129.8 674.614 135.533 674.614 142.2C674.614 148.867 675.947 154.733 678.614 159.8C681.414 164.733 685.014 168.533 689.414 171.2C693.947 173.867 698.747 175.2 703.814 175.2C709.014 175.2 713.881 173.933 718.414 171.4C722.947 168.733 726.547 165 729.214 160.2C731.881 155.267 733.214 149.4 733.214 142.6ZM813.361 110.2V163.8C813.361 167.533 814.228 170.267 815.961 172C817.828 173.6 820.894 174.4 825.161 174.4H838.161V198H820.561C796.961 198 785.161 186.533 785.161 163.6V110.2H771.961V87.2H785.161V59.8H813.361V87.2H838.161V110.2H813.361ZM954.9 87.2V198H926.7V184C923.1 188.8 918.367 192.6 912.5 195.4C906.767 198.067 900.5 199.4 893.7 199.4C885.033 199.4 877.367 197.6 870.7 194C864.033 190.267 858.767 184.867 854.9 177.8C851.167 170.6 849.3 162.067 849.3 152.2V87.2H877.3V148.2C877.3 157 879.5 163.8 883.9 168.6C888.3 173.267 894.3 175.6 901.9 175.6C909.633 175.6 915.7 173.267 920.1 168.6C924.5 163.8 926.7 157 926.7 148.2V87.2H954.9ZM1016.93 199.8C1007.86 199.8 999.727 198.2 992.527 195C985.327 191.667 979.593 187.2 975.327 181.6C971.193 176 968.927 169.8 968.527 163H996.727C997.26 167.267 999.327 170.8 1002.93 173.6C1006.66 176.4 1011.26 177.8 1016.73 177.8C1022.06 177.8 1026.19 176.733 1029.13 174.6C1032.19 172.467 1033.73 169.733 1033.73 166.4C1033.73 162.8 1031.86 160.133 1028.13 158.4C1024.53 156.533 1018.73 154.533 1010.73 152.4C1002.46 150.4 995.66 148.333 990.327 146.2C985.127 144.067 980.593 140.8 976.727 136.4C972.993 132 971.127 126.067 971.127 118.6C971.127 112.467 972.86 106.867 976.327 101.8C979.927 96.7333 984.993 92.7333 991.527 89.8C998.193 86.8667 1005.99 85.4 1014.93 85.4C1028.13 85.4 1038.66 88.7333 1046.53 95.4C1054.39 101.933 1058.73 110.8 1059.53 122H1032.73C1032.33 117.6 1030.46 114.133 1027.13 111.6C1023.93 108.933 1019.59 107.6 1014.13 107.6C1009.06 107.6 1005.13 108.533 1002.33 110.4C999.66 112.267 998.327 114.867 998.327 118.2C998.327 121.933 1000.19 124.8 1003.93 126.8C1007.66 128.667 1013.46 130.6 1021.33 132.6C1029.33 134.6 1035.93 136.667 1041.13 138.8C1046.33 140.933 1050.79 144.267 1054.53 148.8C1058.39 153.2 1060.39 159.067 1060.53 166.4C1060.53 172.8 1058.73 178.533 1055.13 183.6C1051.66 188.667 1046.59 192.667 1039.93 195.6C1033.39 198.4 1025.73 199.8 1016.93 199.8Z" fill="currentColor"/>
<path d="M1180.11 139H1142.31V177.8H1115.91V139H1078.11V114.6H1115.91V75.8H1142.31V114.6H1180.11V139Z" fill="#00A2FF"/>
</svg>
