<svg width="400" height="400" viewBox="0 0 400 400" fill="none" xmlns="http://www.w3.org/2000/svg">
<path d="M103.8 53.7551C95.7802 39.8653 78.0194 35.1063 64.1295 43.1256C50.2397 51.1449 45.4807 68.9057 53.5 82.7955L84.1538 135.889C96.6283 157.496 89.2253 185.124 67.619 197.598L14.5251 228.252C0.635241 236.271 -4.12376 254.032 3.89553 267.922C11.9148 281.812 29.6757 286.571 43.5655 278.552L102.248 244.671C148.548 217.94 164.411 158.737 137.68 112.438L103.8 53.7551Z" fill="#888888"/>
<path d="M278.552 356.434C286.571 370.324 281.812 388.085 267.922 396.104C254.032 404.124 236.271 399.365 228.252 385.475L197.598 332.381C185.124 310.775 157.496 303.372 135.889 315.846L82.7955 346.5C68.9057 354.519 51.1449 349.76 43.1256 335.87C35.1063 321.981 39.8653 304.22 53.7551 296.2L112.438 262.32C158.737 235.589 217.94 251.452 244.671 297.752L278.552 356.434Z" fill="#00A2FF"/>
<path d="M121.448 43.5655C113.429 29.6757 118.188 11.9148 132.078 3.89553C145.968 -4.12376 163.729 0.635243 171.748 14.5251L202.402 67.619C214.876 89.2254 242.504 96.6282 264.111 84.1538L317.204 53.5C331.094 45.4807 348.855 50.2397 356.874 64.1295C364.894 78.0194 360.135 95.7802 346.245 103.8L287.562 137.68C241.263 164.411 182.06 148.548 155.329 102.248L121.448 43.5655Z" fill="#00A2FF"/>
<path d="M296.2 346.245C304.22 360.135 321.981 364.894 335.87 356.874C349.76 348.855 354.519 331.094 346.5 317.204L315.846 264.111C303.372 242.504 310.775 214.876 332.381 202.402L385.475 171.748C399.365 163.729 404.124 145.968 396.104 132.078C388.085 118.188 370.324 113.429 356.434 121.449L297.752 155.329C251.452 182.06 235.589 241.263 262.32 287.562L296.2 346.245Z" fill="#00A2FF"/>
<rect x="178.602" y="162.298" width="61.1377" height="61.1377" transform="rotate(15 178.602 162.298)" fill="#888888"/>
</svg>
