<svg width="512" height="512" viewBox="0 0 512 512" fill="none" xmlns="http://www.w3.org/2000/svg">
<path d="M196.875 108.597C191.863 99.9158 180.762 96.9414 172.081 101.954C163.4 106.966 160.425 118.066 165.438 126.747L184.596 159.931C192.393 173.435 187.766 190.702 174.262 198.499L141.078 217.658C132.397 222.67 129.423 233.77 134.435 242.451C139.447 251.132 150.547 254.107 159.228 249.095L195.905 227.919C224.842 211.213 234.757 174.211 218.05 145.274L196.875 108.597Z" fill="#888888"/>
<path d="M306.095 297.772C311.107 306.453 308.132 317.553 299.451 322.565C290.77 327.577 279.67 324.603 274.658 315.922L255.499 282.738C247.702 269.234 230.435 264.607 216.931 272.404L183.747 291.562C175.066 296.575 163.966 293.6 158.954 284.919C153.941 276.238 156.916 265.137 165.597 260.125L202.274 238.95C231.211 222.243 268.213 232.158 284.919 261.095L306.095 297.772Z" fill="#00A2FF"/>
<path d="M207.905 102.228C202.893 93.5473 205.868 82.4468 214.549 77.4347C223.23 72.4226 234.33 75.397 239.342 84.0782L258.501 117.262C266.298 130.766 283.565 135.393 297.069 127.596L330.253 108.438C338.934 103.425 350.034 106.4 355.047 115.081C360.059 123.762 357.084 134.863 348.403 139.875L311.726 161.05C282.789 177.757 245.787 167.842 229.081 138.905L207.905 102.228Z" fill="#00A2FF"/>
<path d="M317.125 291.403C322.137 300.084 333.238 303.059 341.919 298.047C350.6 293.034 353.575 281.934 348.562 273.253L329.404 240.069C321.607 226.565 326.234 209.298 339.738 201.501L372.922 182.342C381.603 177.33 384.577 166.23 379.565 157.549C374.553 148.868 363.453 145.893 354.772 150.905L318.095 172.081C289.158 188.787 279.243 225.789 295.95 254.726L317.125 291.403Z" fill="#00A2FF"/>
<rect x="243.626" y="176.437" width="38.2111" height="38.2111" transform="rotate(15 243.626 176.437)" fill="#888888"/>
<path d="M95.3809 422.7C90.5142 422.7 86.1142 421.867 82.1809 420.2C78.3142 418.533 75.2475 416.133 72.9809 413C70.7142 409.867 69.5475 406.167 69.4809 401.9H84.4809C84.6809 404.767 85.6809 407.033 87.4809 408.7C89.3475 410.367 91.8809 411.2 95.0809 411.2C98.3475 411.2 100.914 410.433 102.781 408.9C104.648 407.3 105.581 405.233 105.581 402.7C105.581 400.633 104.948 398.933 103.681 397.6C102.414 396.267 100.814 395.233 98.8809 394.5C97.0142 393.7 94.4142 392.833 91.0809 391.9C86.5475 390.567 82.8475 389.267 79.9809 388C77.1809 386.667 74.7475 384.7 72.6809 382.1C70.6809 379.433 69.6809 375.9 69.6809 371.5C69.6809 367.367 70.7142 363.767 72.7809 360.7C74.8475 357.633 77.7475 355.3 81.4809 353.7C85.2142 352.033 89.4809 351.2 94.2809 351.2C101.481 351.2 107.314 352.967 111.781 356.5C116.314 359.967 118.814 364.833 119.281 371.1H103.881C103.748 368.7 102.714 366.733 100.781 365.2C98.9142 363.6 96.4142 362.8 93.2809 362.8C90.5475 362.8 88.3475 363.5 86.6809 364.9C85.0809 366.3 84.2809 368.333 84.2809 371C84.2809 372.867 84.8809 374.433 86.0809 375.7C87.3475 376.9 88.8809 377.9 90.6809 378.7C92.5475 379.433 95.1475 380.3 98.4809 381.3C103.014 382.633 106.714 383.967 109.581 385.3C112.448 386.633 114.914 388.633 116.981 391.3C119.048 393.967 120.081 397.467 120.081 401.8C120.081 405.533 119.114 409 117.181 412.2C115.248 415.4 112.414 417.967 108.681 419.9C104.948 421.767 100.514 422.7 95.3809 422.7ZM146.518 378.1V404.9C146.518 406.767 146.952 408.133 147.818 409C148.752 409.8 150.285 410.2 152.418 410.2H158.918V422H150.118C138.318 422 132.418 416.267 132.418 404.8V378.1H125.818V366.6H132.418V352.9H146.518V366.6H158.918V378.1H146.518ZM163.388 394.1C163.388 388.5 164.488 383.533 166.688 379.2C168.955 374.867 171.988 371.533 175.788 369.2C179.655 366.867 183.955 365.7 188.688 365.7C192.821 365.7 196.421 366.533 199.488 368.2C202.621 369.867 205.121 371.967 206.988 374.5V366.6H221.088V422H206.988V413.9C205.188 416.5 202.688 418.667 199.488 420.4C196.355 422.067 192.721 422.9 188.588 422.9C183.921 422.9 179.655 421.7 175.788 419.3C171.988 416.9 168.955 413.533 166.688 409.2C164.488 404.8 163.388 399.767 163.388 394.1ZM206.988 394.3C206.988 390.9 206.321 388 204.988 385.6C203.655 383.133 201.855 381.267 199.588 380C197.321 378.667 194.888 378 192.288 378C189.688 378 187.288 378.633 185.088 379.9C182.888 381.167 181.088 383.033 179.688 385.5C178.355 387.9 177.688 390.767 177.688 394.1C177.688 397.433 178.355 400.367 179.688 402.9C181.088 405.367 182.888 407.267 185.088 408.6C187.355 409.933 189.755 410.6 192.288 410.6C194.888 410.6 197.321 409.967 199.588 408.7C201.855 407.367 203.655 405.5 204.988 403.1C206.321 400.633 206.988 397.7 206.988 394.3ZM249.061 378.1V404.9C249.061 406.767 249.495 408.133 250.361 409C251.295 409.8 252.828 410.2 254.961 410.2H261.461V422H252.661C240.861 422 234.961 416.267 234.961 404.8V378.1H228.361V366.6H234.961V352.9H249.061V366.6H261.461V378.1H249.061ZM321.831 366.6V422H307.731V415C305.931 417.4 303.564 419.3 300.631 420.7C297.764 422.033 294.631 422.7 291.231 422.7C286.898 422.7 283.064 421.8 279.731 420C276.398 418.133 273.764 415.433 271.831 411.9C269.964 408.3 269.031 404.033 269.031 399.1V366.6H283.031V397.1C283.031 401.5 284.131 404.9 286.331 407.3C288.531 409.633 291.531 410.8 295.331 410.8C299.198 410.8 302.231 409.633 304.431 407.3C306.631 404.9 307.731 401.5 307.731 397.1V366.6H321.831ZM354.844 422.9C350.311 422.9 346.244 422.1 342.644 420.5C339.044 418.833 336.177 416.6 334.044 413.8C331.977 411 330.844 407.9 330.644 404.5H344.744C345.011 406.633 346.044 408.4 347.844 409.8C349.711 411.2 352.011 411.9 354.744 411.9C357.411 411.9 359.477 411.367 360.944 410.3C362.477 409.233 363.244 407.867 363.244 406.2C363.244 404.4 362.311 403.067 360.444 402.2C358.644 401.267 355.744 400.267 351.744 399.2C347.611 398.2 344.211 397.167 341.544 396.1C338.944 395.033 336.677 393.4 334.744 391.2C332.877 389 331.944 386.033 331.944 382.3C331.944 379.233 332.811 376.433 334.544 373.9C336.344 371.367 338.877 369.367 342.144 367.9C345.477 366.433 349.377 365.7 353.844 365.7C360.444 365.7 365.711 367.367 369.644 370.7C373.577 373.967 375.744 378.4 376.144 384H362.744C362.544 381.8 361.611 380.067 359.944 378.8C358.344 377.467 356.177 376.8 353.444 376.8C350.911 376.8 348.944 377.267 347.544 378.2C346.211 379.133 345.544 380.433 345.544 382.1C345.544 383.967 346.477 385.4 348.344 386.4C350.211 387.333 353.111 388.3 357.044 389.3C361.044 390.3 364.344 391.333 366.944 392.4C369.544 393.467 371.777 395.133 373.644 397.4C375.577 399.6 376.577 402.533 376.644 406.2C376.644 409.4 375.744 412.267 373.944 414.8C372.211 417.333 369.677 419.333 366.344 420.8C363.077 422.2 359.244 422.9 354.844 422.9Z" fill="#1A1A1A"/>
<path d="M438.436 392.5H419.536V411.9H406.336V392.5H387.436V380.3H406.336V360.9H419.536V380.3H438.436V392.5Z" fill="#00A2FF"/>
</svg>
