<svg width="1540" height="512" viewBox="0 0 1540 512" fill="none" xmlns="http://www.w3.org/2000/svg">
<path d="M159.8 109.755C151.78 95.8653 134.019 91.1063 120.13 99.1256C106.24 107.145 101.481 124.906 109.5 138.796L140.154 191.889C152.628 213.496 145.225 241.124 123.619 253.598L70.5251 284.252C56.6352 292.271 51.8762 310.032 59.8955 323.922C67.9148 337.812 85.6757 342.571 99.5655 334.552L158.248 300.671C204.548 273.94 220.411 214.737 193.68 168.438L159.8 109.755Z" fill="#888888"/>
<path d="M334.551 412.434C342.571 426.324 337.812 444.085 323.922 452.104C310.032 460.124 292.271 455.365 284.252 441.475L253.598 388.381C241.124 366.775 213.496 359.372 191.889 371.846L138.795 402.5C124.906 410.519 107.145 405.76 99.1255 391.87C91.1062 377.981 95.8652 360.22 109.755 352.2L168.438 318.32C214.737 291.589 273.94 307.452 300.671 353.752L334.551 412.434Z" fill="#00A2FF"/>
<path d="M177.449 99.5655C169.429 85.6757 174.188 67.9148 188.078 59.8955C201.968 51.8762 219.729 56.6352 227.748 70.5251L258.402 123.619C270.876 145.225 298.504 152.628 320.111 140.154L373.205 109.5C387.094 101.481 404.855 106.24 412.874 120.13C420.894 134.019 416.135 151.78 402.245 159.8L343.562 193.68C297.263 220.411 238.06 204.548 211.329 158.248L177.449 99.5655Z" fill="#00A2FF"/>
<path d="M352.2 402.245C360.22 416.135 377.981 420.894 391.87 412.874C405.76 404.855 410.519 387.094 402.5 373.204L371.846 320.111C359.372 298.504 366.775 270.876 388.381 258.402L441.475 227.748C455.365 219.729 460.124 201.968 452.104 188.078C444.085 174.188 426.324 169.429 412.434 177.449L353.752 211.329C307.452 238.06 291.589 297.263 318.32 343.562L352.2 402.245Z" fill="#00A2FF"/>
<rect x="234.602" y="218.298" width="61.1377" height="61.1377" transform="rotate(15 234.602 218.298)" fill="#888888"/>
<path d="M547.208 333.84H525.32L521.288 345H514.376L532.52 295.104H540.08L558.152 345H551.24L547.208 333.84ZM545.336 328.512L536.264 303.168L527.192 328.512H545.336ZM582.404 304.824C587.204 304.824 591.092 306.288 594.068 309.216C597.044 312.096 598.532 316.272 598.532 321.744V345H592.052V322.68C592.052 318.744 591.068 315.744 589.1 313.68C587.132 311.568 584.444 310.512 581.036 310.512C577.58 310.512 574.82 311.592 572.756 313.752C570.74 315.912 569.732 319.056 569.732 323.184V345H563.18V305.544H569.732V311.16C571.028 309.144 572.78 307.584 574.988 306.48C577.244 305.376 579.716 304.824 582.404 304.824ZM1402.83 310.944V334.2C1402.83 336.12 1403.23 337.488 1404.05 338.304C1404.87 339.072 1406.28 339.456 1408.3 339.456H1413.12V345H1407.22C1403.57 345 1400.83 344.16 1399.01 342.48C1397.19 340.8 1396.27 338.04 1396.27 334.2V310.944H1391.16V305.544H1396.27V295.608H1402.83V305.544H1413.12V310.944H1402.83ZM1435.39 345.648C1431.69 345.648 1428.33 344.808 1425.31 343.128C1422.33 341.448 1419.98 339.072 1418.25 336C1416.57 332.88 1415.73 329.28 1415.73 325.2C1415.73 321.168 1416.6 317.616 1418.32 314.544C1420.1 311.424 1422.5 309.048 1425.52 307.416C1428.55 305.736 1431.93 304.896 1435.68 304.896C1439.42 304.896 1442.8 305.736 1445.83 307.416C1448.85 309.048 1451.23 311.4 1452.96 314.472C1454.73 317.544 1455.62 321.12 1455.62 325.2C1455.62 329.28 1454.71 332.88 1452.88 336C1451.11 339.072 1448.68 341.448 1445.61 343.128C1442.54 344.808 1439.13 345.648 1435.39 345.648ZM1435.39 339.888C1437.74 339.888 1439.95 339.336 1442.01 338.232C1444.08 337.128 1445.73 335.472 1446.98 333.264C1448.28 331.056 1448.92 328.368 1448.92 325.2C1448.92 322.032 1448.3 319.344 1447.05 317.136C1445.8 314.928 1444.17 313.296 1442.16 312.24C1440.14 311.136 1437.96 310.584 1435.6 310.584C1433.2 310.584 1431 311.136 1428.98 312.24C1427.01 313.296 1425.43 314.928 1424.23 317.136C1423.03 319.344 1422.43 322.032 1422.43 325.2C1422.43 328.416 1423 331.128 1424.16 333.336C1425.36 335.544 1426.94 337.2 1428.91 338.304C1430.88 339.36 1433.04 339.888 1435.39 339.888ZM543.968 417L532.016 396.48H524.096V417H517.544V366.816H533.744C537.536 366.816 540.728 367.464 543.32 368.76C545.96 370.056 547.928 371.808 549.224 374.016C550.52 376.224 551.168 378.744 551.168 381.576C551.168 385.032 550.16 388.08 548.144 390.72C546.176 393.36 543.2 395.112 539.216 395.976L551.816 417H543.968ZM524.096 391.224H533.744C537.296 391.224 539.96 390.36 541.736 388.632C543.512 386.856 544.4 384.504 544.4 381.576C544.4 378.6 543.512 376.296 541.736 374.664C540.008 373.032 537.344 372.216 533.744 372.216H524.096V391.224ZM575.677 417.648C571.981 417.648 568.621 416.808 565.597 415.128C562.621 413.448 560.269 411.072 558.541 408C556.861 404.88 556.021 401.28 556.021 397.2C556.021 393.168 556.885 389.616 558.613 386.544C560.389 383.424 562.789 381.048 565.813 379.416C568.837 377.736 572.221 376.896 575.965 376.896C579.709 376.896 583.093 377.736 586.117 379.416C589.141 381.048 591.517 383.4 593.245 386.472C595.021 389.544 595.909 393.12 595.909 397.2C595.909 401.28 594.997 404.88 593.173 408C591.397 411.072 588.973 413.448 585.901 415.128C582.829 416.808 579.421 417.648 575.677 417.648ZM575.677 411.888C578.029 411.888 580.237 411.336 582.301 410.232C584.365 409.128 586.021 407.472 587.269 405.264C588.565 403.056 589.213 400.368 589.213 397.2C589.213 394.032 588.589 391.344 587.341 389.136C586.093 386.928 584.461 385.296 582.445 384.24C580.429 383.136 578.245 382.584 575.893 382.584C573.493 382.584 571.285 383.136 569.269 384.24C567.301 385.296 565.717 386.928 564.517 389.136C563.317 391.344 562.717 394.032 562.717 397.2C562.717 400.416 563.293 403.128 564.445 405.336C565.645 407.544 567.229 409.2 569.197 410.304C571.165 411.36 573.325 411.888 575.677 411.888ZM608.195 384.888C609.539 382.536 611.507 380.616 614.099 379.128C616.691 377.64 619.643 376.896 622.955 376.896C626.507 376.896 629.699 377.736 632.531 379.416C635.363 381.096 637.595 383.472 639.227 386.544C640.859 389.568 641.675 393.096 641.675 397.128C641.675 401.112 640.859 404.664 639.227 407.784C637.595 410.904 635.339 413.328 632.459 415.056C629.627 416.784 626.459 417.648 622.955 417.648C619.547 417.648 616.547 416.904 613.955 415.416C611.411 413.928 609.491 412.032 608.195 409.728V417H601.643V363.72H608.195V384.888ZM634.979 397.128C634.979 394.152 634.379 391.56 633.179 389.352C631.979 387.144 630.347 385.464 628.283 384.312C626.267 383.16 624.035 382.584 621.587 382.584C619.187 382.584 616.955 383.184 614.891 384.384C612.875 385.536 611.243 387.24 609.995 389.496C608.795 391.704 608.195 394.272 608.195 397.2C608.195 400.176 608.795 402.792 609.995 405.048C611.243 407.256 612.875 408.96 614.891 410.16C616.955 411.312 619.187 411.888 621.587 411.888C624.035 411.888 626.267 411.312 628.283 410.16C630.347 408.96 631.979 407.256 633.179 405.048C634.379 402.792 634.979 400.152 634.979 397.128ZM653.972 363.72V417H647.42V363.72H653.972ZM679.466 417.648C675.77 417.648 672.41 416.808 669.386 415.128C666.41 413.448 664.058 411.072 662.33 408C660.65 404.88 659.81 401.28 659.81 397.2C659.81 393.168 660.674 389.616 662.402 386.544C664.178 383.424 666.578 381.048 669.602 379.416C672.626 377.736 676.01 376.896 679.754 376.896C683.498 376.896 686.882 377.736 689.906 379.416C692.93 381.048 695.306 383.4 697.034 386.472C698.81 389.544 699.698 393.12 699.698 397.2C699.698 401.28 698.786 404.88 696.962 408C695.186 411.072 692.762 413.448 689.69 415.128C686.618 416.808 683.21 417.648 679.466 417.648ZM679.466 411.888C681.818 411.888 684.026 411.336 686.09 410.232C688.154 409.128 689.81 407.472 691.058 405.264C692.354 403.056 693.002 400.368 693.002 397.2C693.002 394.032 692.378 391.344 691.13 389.136C689.882 386.928 688.25 385.296 686.234 384.24C684.218 383.136 682.034 382.584 679.682 382.584C677.282 382.584 675.074 383.136 673.058 384.24C671.09 385.296 669.506 386.928 668.306 389.136C667.106 391.344 666.506 394.032 666.506 397.2C666.506 400.416 667.082 403.128 668.234 405.336C669.434 407.544 671.018 409.2 672.986 410.304C674.954 411.36 677.114 411.888 679.466 411.888ZM726.025 417L716.665 402.312L707.665 417H700.825L713.569 397.416L700.825 377.544H708.241L717.601 392.16L726.529 377.544H733.369L720.697 397.056L733.441 417H726.025ZM738.014 366.816H745.286L738.374 383.16H733.766L738.014 366.816ZM763.844 417.648C760.82 417.648 758.108 417.144 755.708 416.136C753.308 415.08 751.412 413.64 750.02 411.816C748.628 409.944 747.86 407.808 747.716 405.408H754.484C754.676 407.376 755.588 408.984 757.22 410.232C758.9 411.48 761.084 412.104 763.772 412.104C766.268 412.104 768.236 411.552 769.676 410.448C771.116 409.344 771.836 407.952 771.836 406.272C771.836 404.544 771.068 403.272 769.532 402.456C767.996 401.592 765.62 400.752 762.404 399.936C759.476 399.168 757.076 398.4 755.204 397.632C753.38 396.816 751.796 395.64 750.452 394.104C749.156 392.52 748.508 390.456 748.508 387.912C748.508 385.896 749.108 384.048 750.308 382.368C751.508 380.688 753.212 379.368 755.42 378.408C757.628 377.4 760.148 376.896 762.98 376.896C767.348 376.896 770.876 378 773.564 380.208C776.252 382.416 777.692 385.44 777.884 389.28H771.332C771.188 387.216 770.348 385.56 768.812 384.312C767.324 383.064 765.308 382.44 762.764 382.44C760.412 382.44 758.54 382.944 757.148 383.952C755.756 384.96 755.06 386.28 755.06 387.912C755.06 389.208 755.468 390.288 756.284 391.152C757.148 391.968 758.204 392.64 759.452 393.168C760.748 393.648 762.524 394.2 764.78 394.824C767.612 395.592 769.916 396.36 771.692 397.128C773.468 397.848 774.98 398.952 776.228 400.44C777.524 401.928 778.196 403.872 778.244 406.272C778.244 408.432 777.644 410.376 776.444 412.104C775.244 413.832 773.54 415.2 771.332 416.208C769.172 417.168 766.676 417.648 763.844 417.648ZM816.841 417.504C813.529 417.504 810.553 416.928 807.913 415.776C805.321 414.576 803.281 412.944 801.793 410.88C800.305 408.768 799.537 406.344 799.489 403.608H806.473C806.713 405.96 807.673 407.952 809.353 409.584C811.081 411.168 813.577 411.96 816.841 411.96C819.961 411.96 822.409 411.192 824.185 409.656C826.009 408.072 826.921 406.056 826.921 403.608C826.921 401.688 826.393 400.128 825.337 398.928C824.281 397.728 822.961 396.816 821.377 396.192C819.793 395.568 817.657 394.896 814.969 394.176C811.657 393.312 808.993 392.448 806.977 391.584C805.009 390.72 803.305 389.376 801.865 387.552C800.473 385.68 799.777 383.184 799.777 380.064C799.777 377.328 800.473 374.904 801.865 372.792C803.257 370.68 805.201 369.048 807.697 367.896C810.241 366.744 813.145 366.168 816.409 366.168C821.113 366.168 824.953 367.344 827.929 369.696C830.953 372.048 832.657 375.168 833.041 379.056H825.841C825.601 377.136 824.593 375.456 822.817 374.016C821.041 372.528 818.689 371.784 815.761 371.784C813.025 371.784 810.793 372.504 809.065 373.944C807.337 375.336 806.473 377.304 806.473 379.848C806.473 381.672 806.977 383.16 807.985 384.312C809.041 385.464 810.313 386.352 811.801 386.976C813.337 387.552 815.473 388.224 818.209 388.992C821.521 389.904 824.185 390.816 826.201 391.728C828.217 392.592 829.945 393.96 831.385 395.832C832.825 397.656 833.545 400.152 833.545 403.32C833.545 405.768 832.897 408.072 831.601 410.232C830.305 412.392 828.385 414.144 825.841 415.488C823.297 416.832 820.297 417.504 816.841 417.504ZM848.299 382.944V406.2C848.299 408.12 848.707 409.488 849.523 410.304C850.339 411.072 851.755 411.456 853.771 411.456H858.595V417H852.691C849.043 417 846.307 416.16 844.483 414.48C842.659 412.8 841.747 410.04 841.747 406.2V382.944H836.635V377.544H841.747V367.608H848.299V377.544H858.595V382.944H848.299ZM861.205 397.128C861.205 393.096 862.021 389.568 863.653 386.544C865.285 383.472 867.517 381.096 870.349 379.416C873.229 377.736 876.421 376.896 879.925 376.896C883.381 376.896 886.381 377.64 888.925 379.128C891.469 380.616 893.365 382.488 894.613 384.744V377.544H901.237V417H894.613V409.656C893.317 411.96 891.373 413.88 888.781 415.416C886.237 416.904 883.261 417.648 879.853 417.648C876.349 417.648 873.181 416.784 870.349 415.056C867.517 413.328 865.285 410.904 863.653 407.784C862.021 404.664 861.205 401.112 861.205 397.128ZM894.613 397.2C894.613 394.224 894.013 391.632 892.813 389.424C891.613 387.216 889.981 385.536 887.917 384.384C885.901 383.184 883.669 382.584 881.221 382.584C878.773 382.584 876.541 383.16 874.525 384.312C872.509 385.464 870.901 387.144 869.701 389.352C868.501 391.56 867.901 394.152 867.901 397.128C867.901 400.152 868.501 402.792 869.701 405.048C870.901 407.256 872.509 408.96 874.525 410.16C876.541 411.312 878.773 411.888 881.221 411.888C883.669 411.888 885.901 411.312 887.917 410.16C889.981 408.96 891.613 407.256 892.813 405.048C894.013 402.792 894.613 400.176 894.613 397.2ZM917.421 382.944V406.2C917.421 408.12 917.829 409.488 918.645 410.304C919.461 411.072 920.877 411.456 922.893 411.456H927.717V417H921.813C918.165 417 915.429 416.16 913.605 414.48C911.781 412.8 910.869 410.04 910.869 406.2V382.944H905.757V377.544H910.869V367.608H917.421V377.544H927.717V382.944H917.421ZM967.768 377.544V417H961.216V411.168C959.968 413.184 958.216 414.768 955.96 415.92C953.752 417.024 951.304 417.576 948.616 417.576C945.544 417.576 942.784 416.952 940.336 415.704C937.888 414.408 935.944 412.488 934.504 409.944C933.112 407.4 932.416 404.304 932.416 400.656V377.544H938.896V399.792C938.896 403.68 939.88 406.68 941.848 408.792C943.816 410.856 946.504 411.888 949.912 411.888C953.416 411.888 956.176 410.808 958.192 408.648C960.208 406.488 961.216 403.344 961.216 399.216V377.544H967.768ZM989.919 417.648C986.895 417.648 984.183 417.144 981.783 416.136C979.383 415.08 977.487 413.64 976.095 411.816C974.703 409.944 973.935 407.808 973.791 405.408H980.559C980.751 407.376 981.663 408.984 983.295 410.232C984.975 411.48 987.159 412.104 989.847 412.104C992.343 412.104 994.311 411.552 995.751 410.448C997.191 409.344 997.911 407.952 997.911 406.272C997.911 404.544 997.143 403.272 995.607 402.456C994.071 401.592 991.695 400.752 988.479 399.936C985.551 399.168 983.151 398.4 981.279 397.632C979.455 396.816 977.871 395.64 976.527 394.104C975.231 392.52 974.583 390.456 974.583 387.912C974.583 385.896 975.183 384.048 976.383 382.368C977.583 380.688 979.287 379.368 981.495 378.408C983.703 377.4 986.223 376.896 989.055 376.896C993.423 376.896 996.951 378 999.639 380.208C1002.33 382.416 1003.77 385.44 1003.96 389.28H997.407C997.263 387.216 996.423 385.56 994.887 384.312C993.399 383.064 991.383 382.44 988.839 382.44C986.487 382.44 984.615 382.944 983.223 383.952C981.831 384.96 981.135 386.28 981.135 387.912C981.135 389.208 981.543 390.288 982.359 391.152C983.223 391.968 984.279 392.64 985.527 393.168C986.823 393.648 988.599 394.2 990.855 394.824C993.687 395.592 995.991 396.36 997.767 397.128C999.543 397.848 1001.05 398.952 1002.3 400.44C1003.6 401.928 1004.27 403.872 1004.32 406.272C1004.32 408.432 1003.72 410.376 1002.52 412.104C1001.32 413.832 999.615 415.2 997.407 416.208C995.247 417.168 992.751 417.648 989.919 417.648ZM1042.92 417.504C1039.6 417.504 1036.63 416.928 1033.99 415.776C1031.4 414.576 1029.36 412.944 1027.87 410.88C1026.38 408.768 1025.61 406.344 1025.56 403.608H1032.55C1032.79 405.96 1033.75 407.952 1035.43 409.584C1037.16 411.168 1039.65 411.96 1042.92 411.96C1046.04 411.96 1048.48 411.192 1050.26 409.656C1052.08 408.072 1053 406.056 1053 403.608C1053 401.688 1052.47 400.128 1051.41 398.928C1050.36 397.728 1049.04 396.816 1047.45 396.192C1045.87 395.568 1043.73 394.896 1041.04 394.176C1037.73 393.312 1035.07 392.448 1033.05 391.584C1031.08 390.72 1029.38 389.376 1027.94 387.552C1026.55 385.68 1025.85 383.184 1025.85 380.064C1025.85 377.328 1026.55 374.904 1027.94 372.792C1029.33 370.68 1031.28 369.048 1033.77 367.896C1036.32 366.744 1039.22 366.168 1042.48 366.168C1047.19 366.168 1051.03 367.344 1054 369.696C1057.03 372.048 1058.73 375.168 1059.12 379.056H1051.92C1051.68 377.136 1050.67 375.456 1048.89 374.016C1047.12 372.528 1044.76 371.784 1041.84 371.784C1039.1 371.784 1036.87 372.504 1035.14 373.944C1033.41 375.336 1032.55 377.304 1032.55 379.848C1032.55 381.672 1033.05 383.16 1034.06 384.312C1035.12 385.464 1036.39 386.352 1037.88 386.976C1039.41 387.552 1041.55 388.224 1044.28 388.992C1047.6 389.904 1050.26 390.816 1052.28 391.728C1054.29 392.592 1056.02 393.96 1057.46 395.832C1058.9 397.656 1059.62 400.152 1059.62 403.32C1059.62 405.768 1058.97 408.072 1057.68 410.232C1056.38 412.392 1054.46 414.144 1051.92 415.488C1049.37 416.832 1046.37 417.504 1042.92 417.504ZM1069.76 371.136C1068.52 371.136 1067.46 370.704 1066.6 369.84C1065.73 368.976 1065.3 367.92 1065.3 366.672C1065.3 365.424 1065.73 364.368 1066.6 363.504C1067.46 362.64 1068.52 362.208 1069.76 362.208C1070.96 362.208 1071.97 362.64 1072.79 363.504C1073.65 364.368 1074.08 365.424 1074.08 366.672C1074.08 367.92 1073.65 368.976 1072.79 369.84C1071.97 370.704 1070.96 371.136 1069.76 371.136ZM1072.93 377.544V417H1066.38V377.544H1072.93ZM1089.21 382.944V406.2C1089.21 408.12 1089.62 409.488 1090.44 410.304C1091.25 411.072 1092.67 411.456 1094.68 411.456H1099.51V417H1093.6C1089.96 417 1087.22 416.16 1085.4 414.48C1083.57 412.8 1082.66 410.04 1082.66 406.2V382.944H1077.55V377.544H1082.66V367.608H1089.21V377.544H1099.51V382.944H1089.21ZM1140.57 395.76C1140.57 397.008 1140.49 398.328 1140.35 399.72H1108.81C1109.05 403.608 1110.37 406.656 1112.77 408.864C1115.22 411.024 1118.17 412.104 1121.63 412.104C1124.46 412.104 1126.81 411.456 1128.69 410.16C1130.61 408.816 1131.95 407.04 1132.72 404.832H1139.77C1138.72 408.624 1136.61 411.72 1133.44 414.12C1130.27 416.472 1126.33 417.648 1121.63 417.648C1117.89 417.648 1114.53 416.808 1111.55 415.128C1108.62 413.448 1106.32 411.072 1104.64 408C1102.96 404.88 1102.12 401.28 1102.12 397.2C1102.12 393.12 1102.93 389.544 1104.57 386.472C1106.2 383.4 1108.48 381.048 1111.41 379.416C1114.38 377.736 1117.79 376.896 1121.63 376.896C1125.37 376.896 1128.69 377.712 1131.57 379.344C1134.45 380.976 1136.65 383.232 1138.19 386.112C1139.77 388.944 1140.57 392.16 1140.57 395.76ZM1133.8 394.392C1133.8 391.896 1133.25 389.76 1132.14 387.984C1131.04 386.16 1129.53 384.792 1127.61 383.88C1125.73 382.92 1123.65 382.44 1121.34 382.44C1118.03 382.44 1115.2 383.496 1112.85 385.608C1110.54 387.72 1109.22 390.648 1108.89 394.392H1133.8Z" fill="#1A1A1A"/>
<path d="M620.222 325.128C620.222 321.096 621.038 317.568 622.67 314.544C624.302 311.472 626.534 309.096 629.366 307.416C632.246 305.736 635.438 304.896 638.942 304.896C642.398 304.896 645.398 305.64 647.942 307.128C650.486 308.616 652.382 310.488 653.63 312.744V305.544H660.254V345H653.63V337.656C652.334 339.96 650.39 341.88 647.798 343.416C645.254 344.904 642.278 345.648 638.87 345.648C635.366 345.648 632.198 344.784 629.366 343.056C626.534 341.328 624.302 338.904 622.67 335.784C621.038 332.664 620.222 329.112 620.222 325.128ZM653.63 325.2C653.63 322.224 653.03 319.632 651.83 317.424C650.63 315.216 648.998 313.536 646.934 312.384C644.918 311.184 642.686 310.584 640.238 310.584C637.79 310.584 635.558 311.16 633.542 312.312C631.526 313.464 629.918 315.144 628.718 317.352C627.518 319.56 626.918 322.152 626.918 325.128C626.918 328.152 627.518 330.792 628.718 333.048C629.918 335.256 631.526 336.96 633.542 338.16C635.558 339.312 637.79 339.888 640.238 339.888C642.686 339.888 644.918 339.312 646.934 338.16C648.998 336.96 650.63 335.256 651.83 333.048C653.03 330.792 653.63 328.176 653.63 325.2ZM703.438 305.544V345H696.886V339.168C695.638 341.184 693.886 342.768 691.63 343.92C689.422 345.024 686.974 345.576 684.286 345.576C681.214 345.576 678.454 344.952 676.006 343.704C673.558 342.408 671.614 340.488 670.174 337.944C668.782 335.4 668.086 332.304 668.086 328.656V305.544H674.566V327.792C674.566 331.68 675.55 334.68 677.518 336.792C679.486 338.856 682.174 339.888 685.582 339.888C689.086 339.888 691.846 338.808 693.862 336.648C695.878 334.488 696.886 331.344 696.886 327.216V305.544H703.438ZM719.613 310.944V334.2C719.613 336.12 720.021 337.488 720.837 338.304C721.653 339.072 723.069 339.456 725.085 339.456H729.909V345H724.005C720.357 345 717.621 344.16 715.797 342.48C713.973 340.8 713.061 338.04 713.061 334.2V310.944H707.949V305.544H713.061V295.608H719.613V305.544H729.909V310.944H719.613ZM752.175 345.648C748.479 345.648 745.119 344.808 742.095 343.128C739.119 341.448 736.767 339.072 735.039 336C733.359 332.88 732.519 329.28 732.519 325.2C732.519 321.168 733.383 317.616 735.111 314.544C736.887 311.424 739.287 309.048 742.311 307.416C745.335 305.736 748.719 304.896 752.463 304.896C756.207 304.896 759.591 305.736 762.615 307.416C765.639 309.048 768.015 311.4 769.743 314.472C771.519 317.544 772.407 321.12 772.407 325.2C772.407 329.28 771.495 332.88 769.671 336C767.895 339.072 765.471 341.448 762.399 343.128C759.327 344.808 755.919 345.648 752.175 345.648ZM752.175 339.888C754.527 339.888 756.735 339.336 758.799 338.232C760.863 337.128 762.519 335.472 763.767 333.264C765.063 331.056 765.711 328.368 765.711 325.2C765.711 322.032 765.087 319.344 763.839 317.136C762.591 314.928 760.959 313.296 758.943 312.24C756.927 311.136 754.743 310.584 752.391 310.584C749.991 310.584 747.783 311.136 745.767 312.24C743.799 313.296 742.215 314.928 741.015 317.136C739.815 319.344 739.215 322.032 739.215 325.2C739.215 328.416 739.791 331.128 740.943 333.336C742.143 335.544 743.727 337.2 745.695 338.304C747.663 339.36 749.823 339.888 752.175 339.888ZM825.59 304.824C828.662 304.824 831.398 305.472 833.798 306.768C836.198 308.016 838.094 309.912 839.486 312.456C840.878 315 841.574 318.096 841.574 321.744V345H835.094V322.68C835.094 318.744 834.11 315.744 832.142 313.68C830.222 311.568 827.606 310.512 824.294 310.512C820.886 310.512 818.174 311.616 816.158 313.824C814.142 315.984 813.134 319.128 813.134 323.256V345H806.654V322.68C806.654 318.744 805.67 315.744 803.702 313.68C801.782 311.568 799.166 310.512 795.854 310.512C792.446 310.512 789.734 311.616 787.718 313.824C785.702 315.984 784.694 319.128 784.694 323.256V345H778.142V305.544H784.694V311.232C785.99 309.168 787.718 307.584 789.878 306.48C792.086 305.376 794.51 304.824 797.15 304.824C800.462 304.824 803.39 305.568 805.934 307.056C808.478 308.544 810.374 310.728 811.622 313.608C812.726 310.824 814.55 308.664 817.094 307.128C819.638 305.592 822.47 304.824 825.59 304.824ZM846.993 325.128C846.993 321.096 847.809 317.568 849.441 314.544C851.073 311.472 853.305 309.096 856.137 307.416C859.017 305.736 862.209 304.896 865.713 304.896C869.169 304.896 872.169 305.64 874.713 307.128C877.257 308.616 879.153 310.488 880.401 312.744V305.544H887.025V345H880.401V337.656C879.105 339.96 877.161 341.88 874.569 343.416C872.025 344.904 869.049 345.648 865.641 345.648C862.137 345.648 858.969 344.784 856.137 343.056C853.305 341.328 851.073 338.904 849.441 335.784C847.809 332.664 846.993 329.112 846.993 325.128ZM880.401 325.2C880.401 322.224 879.801 319.632 878.601 317.424C877.401 315.216 875.769 313.536 873.705 312.384C871.689 311.184 869.457 310.584 867.009 310.584C864.561 310.584 862.329 311.16 860.313 312.312C858.297 313.464 856.689 315.144 855.489 317.352C854.289 319.56 853.689 322.152 853.689 325.128C853.689 328.152 854.289 330.792 855.489 333.048C856.689 335.256 858.297 336.96 860.313 338.16C862.329 339.312 864.561 339.888 867.009 339.888C869.457 339.888 871.689 339.312 873.705 338.16C875.769 336.96 877.401 335.256 878.601 333.048C879.801 330.792 880.401 328.176 880.401 325.2ZM903.21 310.944V334.2C903.21 336.12 903.618 337.488 904.434 338.304C905.25 339.072 906.666 339.456 908.682 339.456H913.506V345H907.602C903.954 345 901.218 344.16 899.394 342.48C897.57 340.8 896.658 338.04 896.658 334.2V310.944H891.546V305.544H896.658V295.608H903.21V305.544H913.506V310.944H903.21ZM954.564 323.76C954.564 325.008 954.492 326.328 954.348 327.72H922.812C923.052 331.608 924.372 334.656 926.772 336.864C929.22 339.024 932.172 340.104 935.628 340.104C938.46 340.104 940.812 339.456 942.684 338.16C944.604 336.816 945.948 335.04 946.716 332.832H953.772C952.716 336.624 950.604 339.72 947.436 342.12C944.268 344.472 940.332 345.648 935.628 345.648C931.884 345.648 928.524 344.808 925.548 343.128C922.62 341.448 920.316 339.072 918.636 336C916.956 332.88 916.116 329.28 916.116 325.2C916.116 321.12 916.932 317.544 918.564 314.472C920.196 311.4 922.476 309.048 925.404 307.416C928.38 305.736 931.788 304.896 935.628 304.896C939.372 304.896 942.684 305.712 945.564 307.344C948.444 308.976 950.652 311.232 952.188 314.112C953.772 316.944 954.564 320.16 954.564 323.76ZM947.796 322.392C947.796 319.896 947.244 317.76 946.14 315.984C945.036 314.16 943.524 312.792 941.604 311.88C939.732 310.92 937.644 310.44 935.34 310.44C932.028 310.44 929.196 311.496 926.844 313.608C924.54 315.72 923.22 318.648 922.884 322.392H947.796ZM957.885 325.128C957.885 321.096 958.701 317.568 960.333 314.544C961.965 311.472 964.197 309.096 967.029 307.416C969.909 305.736 973.125 304.896 976.677 304.896C979.749 304.896 982.605 305.616 985.245 307.056C987.885 308.448 989.901 310.296 991.293 312.6V291.72H997.917V345H991.293V337.584C989.997 339.936 988.077 341.88 985.533 343.416C982.989 344.904 980.013 345.648 976.605 345.648C973.101 345.648 969.909 344.784 967.029 343.056C964.197 341.328 961.965 338.904 960.333 335.784C958.701 332.664 957.885 329.112 957.885 325.128ZM991.293 325.2C991.293 322.224 990.693 319.632 989.493 317.424C988.293 315.216 986.661 313.536 984.597 312.384C982.581 311.184 980.349 310.584 977.901 310.584C975.453 310.584 973.221 311.16 971.205 312.312C969.189 313.464 967.581 315.144 966.381 317.352C965.181 319.56 964.581 322.152 964.581 325.128C964.581 328.152 965.181 330.792 966.381 333.048C967.581 335.256 969.189 336.96 971.205 338.16C973.221 339.312 975.453 339.888 977.901 339.888C980.349 339.888 982.581 339.312 984.597 338.16C986.661 336.96 988.293 335.256 989.493 333.048C990.693 330.792 991.293 328.176 991.293 325.2ZM1019.98 325.128C1019.98 321.096 1020.79 317.568 1022.42 314.544C1024.06 311.472 1026.29 309.096 1029.12 307.416C1032 305.736 1035.19 304.896 1038.7 304.896C1042.15 304.896 1045.15 305.64 1047.7 307.128C1050.24 308.616 1052.14 310.488 1053.38 312.744V305.544H1060.01V345H1053.38V337.656C1052.09 339.96 1050.14 341.88 1047.55 343.416C1045.01 344.904 1042.03 345.648 1038.62 345.648C1035.12 345.648 1031.95 344.784 1029.12 343.056C1026.29 341.328 1024.06 338.904 1022.42 335.784C1020.79 332.664 1019.98 329.112 1019.98 325.128ZM1053.38 325.2C1053.38 322.224 1052.78 319.632 1051.58 317.424C1050.38 315.216 1048.75 313.536 1046.69 312.384C1044.67 311.184 1042.44 310.584 1039.99 310.584C1037.54 310.584 1035.31 311.16 1033.3 312.312C1031.28 313.464 1029.67 315.144 1028.47 317.352C1027.27 319.56 1026.67 322.152 1026.67 325.128C1026.67 328.152 1027.27 330.792 1028.47 333.048C1029.67 335.256 1031.28 336.96 1033.3 338.16C1035.31 339.312 1037.54 339.888 1039.99 339.888C1042.44 339.888 1044.67 339.312 1046.69 338.16C1048.75 336.96 1050.38 335.256 1051.58 333.048C1052.78 330.792 1053.38 328.176 1053.38 325.2ZM1074.75 291.72V345H1068.2V291.72H1074.75ZM1091.03 310.944V334.2C1091.03 336.12 1091.44 337.488 1092.26 338.304C1093.07 339.072 1094.49 339.456 1096.5 339.456H1101.33V345H1095.42C1091.78 345 1089.04 344.16 1087.22 342.48C1085.39 340.8 1084.48 338.04 1084.48 334.2V310.944H1079.37V305.544H1084.48V295.608H1091.03V305.544H1101.33V310.944H1091.03ZM1142.39 323.76C1142.39 325.008 1142.31 326.328 1142.17 327.72H1110.63C1110.87 331.608 1112.19 334.656 1114.59 336.864C1117.04 339.024 1119.99 340.104 1123.45 340.104C1126.28 340.104 1128.63 339.456 1130.51 338.16C1132.43 336.816 1133.77 335.04 1134.54 332.832H1141.59C1140.54 336.624 1138.43 339.72 1135.26 342.12C1132.09 344.472 1128.15 345.648 1123.45 345.648C1119.71 345.648 1116.35 344.808 1113.37 343.128C1110.44 341.448 1108.14 339.072 1106.46 336C1104.78 332.88 1103.94 329.28 1103.94 325.2C1103.94 321.12 1104.75 317.544 1106.39 314.472C1108.02 311.4 1110.3 309.048 1113.23 307.416C1116.2 305.736 1119.61 304.896 1123.45 304.896C1127.19 304.896 1130.51 305.712 1133.39 307.344C1136.27 308.976 1138.47 311.232 1140.01 314.112C1141.59 316.944 1142.39 320.16 1142.39 323.76ZM1135.62 322.392C1135.62 319.896 1135.07 317.76 1133.96 315.984C1132.86 314.16 1131.35 312.792 1129.43 311.88C1127.55 310.92 1125.47 310.44 1123.16 310.44C1119.85 310.44 1117.02 311.496 1114.67 313.608C1112.36 315.72 1111.04 318.648 1110.71 322.392H1135.62ZM1154.71 311.952C1155.86 309.696 1157.49 307.944 1159.6 306.696C1161.76 305.448 1164.38 304.824 1167.45 304.824V311.592H1165.72C1158.38 311.592 1154.71 315.576 1154.71 323.544V345H1148.15V305.544H1154.71V311.952ZM1191.36 304.824C1196.16 304.824 1200.05 306.288 1203.02 309.216C1206 312.096 1207.49 316.272 1207.49 321.744V345H1201.01V322.68C1201.01 318.744 1200.02 315.744 1198.05 313.68C1196.09 311.568 1193.4 310.512 1189.99 310.512C1186.53 310.512 1183.77 311.592 1181.71 313.752C1179.69 315.912 1178.69 319.056 1178.69 323.184V345H1172.13V305.544H1178.69V311.16C1179.98 309.144 1181.73 307.584 1183.94 306.48C1186.2 305.376 1188.67 304.824 1191.36 304.824ZM1212.86 325.128C1212.86 321.096 1213.68 317.568 1215.31 314.544C1216.94 311.472 1219.17 309.096 1222 307.416C1224.88 305.736 1228.08 304.896 1231.58 304.896C1235.04 304.896 1238.04 305.64 1240.58 307.128C1243.12 308.616 1245.02 310.488 1246.27 312.744V305.544H1252.89V345H1246.27V337.656C1244.97 339.96 1243.03 341.88 1240.44 343.416C1237.89 344.904 1234.92 345.648 1231.51 345.648C1228 345.648 1224.84 344.784 1222 343.056C1219.17 341.328 1216.94 338.904 1215.31 335.784C1213.68 332.664 1212.86 329.112 1212.86 325.128ZM1246.27 325.2C1246.27 322.224 1245.67 319.632 1244.47 317.424C1243.27 315.216 1241.64 313.536 1239.57 312.384C1237.56 311.184 1235.32 310.584 1232.88 310.584C1230.43 310.584 1228.2 311.16 1226.18 312.312C1224.16 313.464 1222.56 315.144 1221.36 317.352C1220.16 319.56 1219.56 322.152 1219.56 325.128C1219.56 328.152 1220.16 330.792 1221.36 333.048C1222.56 335.256 1224.16 336.96 1226.18 338.16C1228.2 339.312 1230.43 339.888 1232.88 339.888C1235.32 339.888 1237.56 339.312 1239.57 338.16C1241.64 336.96 1243.27 335.256 1244.47 333.048C1245.67 330.792 1246.27 328.176 1246.27 325.2ZM1269.08 310.944V334.2C1269.08 336.12 1269.48 337.488 1270.3 338.304C1271.12 339.072 1272.53 339.456 1274.55 339.456H1279.37V345H1273.47C1269.82 345 1267.08 344.16 1265.26 342.48C1263.44 340.8 1262.52 338.04 1262.52 334.2V310.944H1257.41V305.544H1262.52V295.608H1269.08V305.544H1279.37V310.944H1269.08ZM1287.82 299.136C1286.57 299.136 1285.51 298.704 1284.65 297.84C1283.78 296.976 1283.35 295.92 1283.35 294.672C1283.35 293.424 1283.78 292.368 1284.65 291.504C1285.51 290.64 1286.57 290.208 1287.82 290.208C1289.02 290.208 1290.02 290.64 1290.84 291.504C1291.7 292.368 1292.14 293.424 1292.14 294.672C1292.14 295.92 1291.7 296.976 1290.84 297.84C1290.02 298.704 1289.02 299.136 1287.82 299.136ZM1290.98 305.544V345H1284.43V305.544H1290.98ZM1313.96 338.952L1326.2 305.544H1333.18L1317.7 345H1310.07L1294.59 305.544H1301.65L1313.96 338.952ZM1372.75 323.76C1372.75 325.008 1372.68 326.328 1372.53 327.72H1341C1341.24 331.608 1342.56 334.656 1344.96 336.864C1347.41 339.024 1350.36 340.104 1353.81 340.104C1356.65 340.104 1359 339.456 1360.87 338.16C1362.79 336.816 1364.13 335.04 1364.9 332.832H1371.96C1370.9 336.624 1368.79 339.72 1365.62 342.12C1362.45 344.472 1358.52 345.648 1353.81 345.648C1350.07 345.648 1346.71 344.808 1343.73 343.128C1340.81 341.448 1338.5 339.072 1336.82 336C1335.14 332.88 1334.3 329.28 1334.3 325.2C1334.3 321.12 1335.12 317.544 1336.75 314.472C1338.38 311.4 1340.66 309.048 1343.59 307.416C1346.57 305.736 1349.97 304.896 1353.81 304.896C1357.56 304.896 1360.87 305.712 1363.75 307.344C1366.63 308.976 1368.84 311.232 1370.37 314.112C1371.96 316.944 1372.75 320.16 1372.75 323.76ZM1365.98 322.392C1365.98 319.896 1365.43 317.76 1364.33 315.984C1363.22 314.16 1361.71 312.792 1359.79 311.88C1357.92 310.92 1355.83 310.44 1353.53 310.44C1350.21 310.44 1347.38 311.496 1345.03 313.608C1342.73 315.72 1341.41 318.648 1341.07 322.392H1365.98Z" fill="#00A2FF"/>
<path d="M574 255.4C564.267 255.4 555.467 253.733 547.6 250.4C539.867 247.067 533.733 242.267 529.2 236C524.667 229.733 522.333 222.333 522.2 213.8H552.2C552.6 219.533 554.6 224.067 558.2 227.4C561.933 230.733 567 232.4 573.4 232.4C579.933 232.4 585.067 230.867 588.8 227.8C592.533 224.6 594.4 220.467 594.4 215.4C594.4 211.267 593.133 207.867 590.6 205.2C588.067 202.533 584.867 200.467 581 199C577.267 197.4 572.067 195.667 565.4 193.8C556.333 191.133 548.933 188.533 543.2 186C537.6 183.333 532.733 179.4 528.6 174.2C524.6 168.867 522.6 161.8 522.6 153C522.6 144.733 524.667 137.533 528.8 131.4C532.933 125.267 538.733 120.6 546.2 117.4C553.667 114.067 562.2 112.4 571.8 112.4C586.2 112.4 597.867 115.933 606.8 123C615.867 129.933 620.867 139.667 621.8 152.2H591C590.733 147.4 588.667 143.467 584.8 140.4C581.067 137.2 576.067 135.6 569.8 135.6C564.333 135.6 559.933 137 556.6 139.8C553.4 142.6 551.8 146.667 551.8 152C551.8 155.733 553 158.867 555.4 161.4C557.933 163.8 561 165.8 564.6 167.4C568.333 168.867 573.533 170.6 580.2 172.6C589.267 175.267 596.667 177.933 602.4 180.6C608.133 183.267 613.067 187.267 617.2 192.6C621.333 197.933 623.4 204.933 623.4 213.6C623.4 221.067 621.467 228 617.6 234.4C613.733 240.8 608.067 245.933 600.6 249.8C593.133 253.533 584.267 255.4 574 255.4ZM672.275 166.2V219.8C672.275 223.533 673.142 226.267 674.875 228C676.742 229.6 679.808 230.4 684.075 230.4H697.075V254H679.475C655.875 254 644.075 242.533 644.075 219.6V166.2H630.875V143.2H644.075V115.8H672.275V143.2H697.075V166.2H672.275ZM702.014 198.2C702.014 187 704.214 177.067 708.614 168.4C713.147 159.733 719.214 153.067 726.814 148.4C734.547 143.733 743.147 141.4 752.614 141.4C760.881 141.4 768.081 143.067 774.214 146.4C780.481 149.733 785.481 153.933 789.214 159V143.2H817.414V254H789.214V237.8C785.614 243 780.614 247.333 774.214 250.8C767.947 254.133 760.681 255.8 752.414 255.8C743.081 255.8 734.547 253.4 726.814 248.6C719.214 243.8 713.147 237.067 708.614 228.4C704.214 219.6 702.014 209.533 702.014 198.2ZM789.214 198.6C789.214 191.8 787.881 186 785.214 181.2C782.547 176.267 778.947 172.533 774.414 170C769.881 167.333 765.014 166 759.814 166C754.614 166 749.814 167.267 745.414 169.8C741.014 172.333 737.414 176.067 734.614 181C731.947 185.8 730.614 191.533 730.614 198.2C730.614 204.867 731.947 210.733 734.614 215.8C737.414 220.733 741.014 224.533 745.414 227.2C749.947 229.867 754.747 231.2 759.814 231.2C765.014 231.2 769.881 229.933 774.414 227.4C778.947 224.733 782.547 221 785.214 216.2C787.881 211.267 789.214 205.4 789.214 198.6ZM869.361 166.2V219.8C869.361 223.533 870.228 226.267 871.961 228C873.828 229.6 876.894 230.4 881.161 230.4H894.161V254H876.561C852.961 254 841.161 242.533 841.161 219.6V166.2H827.961V143.2H841.161V115.8H869.361V143.2H894.161V166.2H869.361ZM1010.9 143.2V254H982.7V240C979.1 244.8 974.367 248.6 968.5 251.4C962.767 254.067 956.5 255.4 949.7 255.4C941.033 255.4 933.367 253.6 926.7 250C920.033 246.267 914.767 240.867 910.9 233.8C907.167 226.6 905.3 218.067 905.3 208.2V143.2H933.3V204.2C933.3 213 935.5 219.8 939.9 224.6C944.3 229.267 950.3 231.6 957.9 231.6C965.633 231.6 971.7 229.267 976.1 224.6C980.5 219.8 982.7 213 982.7 204.2V143.2H1010.9ZM1072.93 255.8C1063.86 255.8 1055.73 254.2 1048.53 251C1041.33 247.667 1035.59 243.2 1031.33 237.6C1027.19 232 1024.93 225.8 1024.53 219H1052.73C1053.26 223.267 1055.33 226.8 1058.93 229.6C1062.66 232.4 1067.26 233.8 1072.73 233.8C1078.06 233.8 1082.19 232.733 1085.13 230.6C1088.19 228.467 1089.73 225.733 1089.73 222.4C1089.73 218.8 1087.86 216.133 1084.13 214.4C1080.53 212.533 1074.73 210.533 1066.73 208.4C1058.46 206.4 1051.66 204.333 1046.33 202.2C1041.13 200.067 1036.59 196.8 1032.73 192.4C1028.99 188 1027.13 182.067 1027.13 174.6C1027.13 168.467 1028.86 162.867 1032.33 157.8C1035.93 152.733 1040.99 148.733 1047.53 145.8C1054.19 142.867 1061.99 141.4 1070.93 141.4C1084.13 141.4 1094.66 144.733 1102.53 151.4C1110.39 157.933 1114.73 166.8 1115.53 178H1088.73C1088.33 173.6 1086.46 170.133 1083.13 167.6C1079.93 164.933 1075.59 163.6 1070.13 163.6C1065.06 163.6 1061.13 164.533 1058.33 166.4C1055.66 168.267 1054.33 170.867 1054.33 174.2C1054.33 177.933 1056.19 180.8 1059.93 182.8C1063.66 184.667 1069.46 186.6 1077.33 188.6C1085.33 190.6 1091.93 192.667 1097.13 194.8C1102.33 196.933 1106.79 200.267 1110.53 204.8C1114.39 209.2 1116.39 215.067 1116.53 222.4C1116.53 228.8 1114.73 234.533 1111.13 239.6C1107.66 244.667 1102.59 248.667 1095.93 251.6C1089.39 254.4 1081.73 255.8 1072.93 255.8Z" fill="#1A1A1A"/>
<path d="M1236.11 195H1198.31V233.8H1171.91V195H1134.11V170.6H1171.91V131.8H1198.31V170.6H1236.11V195Z" fill="#00A2FF"/>
</svg>
