<svg width="512" height="512" viewBox="0 0 512 512" fill="none" xmlns="http://www.w3.org/2000/svg">
<path d="M159.8 109.755C151.78 95.8653 134.019 91.1063 120.13 99.1256C106.24 107.145 101.481 124.906 109.5 138.796L140.154 191.889C152.628 213.496 145.225 241.124 123.619 253.598L70.5251 284.252C56.6352 292.271 51.8762 310.032 59.8955 323.922C67.9148 337.812 85.6757 342.571 99.5655 334.552L158.248 300.671C204.548 273.94 220.411 214.737 193.68 168.438L159.8 109.755Z" fill="#888888"/>
<path d="M334.552 412.434C342.571 426.324 337.812 444.085 323.922 452.104C310.032 460.124 292.271 455.365 284.252 441.475L253.598 388.381C241.124 366.775 213.496 359.372 191.889 371.846L138.796 402.5C124.906 410.519 107.145 405.76 99.1256 391.87C91.1063 377.981 95.8653 360.22 109.755 352.2L168.438 318.32C214.737 291.589 273.94 307.452 300.671 353.752L334.552 412.434Z" fill="#00A2FF"/>
<path d="M177.448 99.5655C169.429 85.6757 174.188 67.9148 188.078 59.8955C201.968 51.8762 219.729 56.6352 227.748 70.5251L258.402 123.619C270.876 145.225 298.504 152.628 320.111 140.154L373.204 109.5C387.094 101.481 404.855 106.24 412.874 120.13C420.894 134.019 416.135 151.78 402.245 159.8L343.562 193.68C297.263 220.411 238.06 204.548 211.329 158.248L177.448 99.5655Z" fill="#00A2FF"/>
<path d="M352.2 402.245C360.22 416.135 377.981 420.894 391.87 412.874C405.76 404.855 410.519 387.094 402.5 373.204L371.846 320.111C359.372 298.504 366.775 270.876 388.381 258.402L441.475 227.748C455.365 219.729 460.124 201.968 452.104 188.078C444.085 174.188 426.324 169.429 412.434 177.449L353.752 211.329C307.452 238.06 291.589 297.263 318.32 343.562L352.2 402.245Z" fill="#00A2FF"/>
<rect x="234.602" y="218.298" width="61.1377" height="61.1377" transform="rotate(15 234.602 218.298)" fill="#888888"/>
</svg>
